<?xml version="1.0" encoding="utf-8"?>
<!-- Generator: Adobe Illustrator 19.0.0, SVG Export Plug-In . SVG Version: 6.00 Build 0)  -->
<svg version="1.1" id="Layer_1" xmlns="http://www.w3.org/2000/svg" xmlns:xlink="http://www.w3.org/1999/xlink" x="0px" y="0px"
	 viewBox="0 0 945.4 563.5" style="enable-background:new 0 0 945.4 563.5;" xml:space="preserve">
<style type="text/css">
	.st0{fill:#5D5E5E;}
	.st1{fill:#2A3043;}
	.st2{fill:#D0D2D3;}
	.st3{fill:#8FD4D6;}
	.st4{fill:#6AA046;}
	.st5{fill:#C7C6C5;}
	.st6{fill:#2DBFCC;}
	.st7{fill:#E9E8E9;}
	.st8{fill:#324662;}
	.st9{fill:#213A51;}
	.st10{fill:#2E425F;}
	.st11{fill:#25BECA;}
	.st12{fill:#F6F6F6;}
	.st13{fill:#EBB12A;}
	.st14{fill:#049FAB;}
	.st15{fill:#EAAB25;}
	.st16{fill:#A3A7AA;}
	.st17{fill:#FFFFFF;}
</style>
<g id="XMLID_138_">
	<polygon id="XMLID_126_" class="st0" points="745.8,88.7 761.4,76.7 777.4,58.8 787.2,70.7 798.9,82.4 796.6,83.2 789.4,100 
		775.1,114.7 766.4,116 747.6,109.8 732.3,104.7 735.6,96.9 	"/>
	<path id="XMLID_125_" class="st1" d="M161.7,541.5c-0.2,0.3-0.6,0.6-0.7,1c-2.3,9.3-9.2,8-16.1,7c-0.6-2.6-1.1-5.3-1.7-7.9
		C149.5,541.6,155.6,541.5,161.7,541.5z"/>
	<path id="XMLID_124_" class="st1" d="M72.5,557.2c3-5.2,5.5-10.4,0.2-15.7c2.9-0.2,5.8-0.6,8.7,0.2c-0.1,2.5-0.2,4.9-0.2,7.4
		C80.9,557.2,80.7,557.4,72.5,557.2z"/>
	<path id="XMLID_123_" class="st1" d="M130.8,541.1c2.1-3,0.9-6.5,1.5-9.8c1,0,2-0.2,2.4-1.3c10.8,2.7,21.1,1.1,31.2-3.3
		c1.5-0.6,2.2-1.8,2.3-3.4c9.3,5.5,19.1,9.4,30.3,8c3-0.4,6.2-0.1,9.2,0.3c4.6,0.7,7.7,3,6.6,8.3c-4.5,3.1-9.5,4.9-14.7,6.3
		c-15,4-30.4,3-45.6,3.7C144.7,550.4,135.7,551.2,130.8,541.1z"/>
	<path id="XMLID_122_" class="st2" d="M844.8,548.3c-3.4,1.2-6.8,1.5-10.4,1.5c-77.6,0-155.2,0-232.8,0.1l-0.3,0.1
		c0-0.5,0.1-1,0.1-1.6c-0.5-3.1,0.8-6.4-0.9-9.4c-0.3-3.6-1.7-6.7-4.2-9.3c0.6-2.4,1.1-4.7,1.7-7.1c3.7-0.7,8.7,1.3,10.3-4.3
		c1.2-4-2.2-5.2-4.4-7.1c0.9-6.5,1.6-13.1,2.7-19.6c1.9-10.5,1.6-21.3,4.9-31.5c1.1,2.6,1.2,5.8,4.8,6.5c3.8,0.7,5.4-2.1,7.5-4.4
		c1.4-1.5,2.7-3.1,4-4.6c1.6,0.8,3.2,1.6,4.7,2.4c-0.2,4.9,1.7,8.7,5.8,11.3c4.7,9.5,6.7,19.1,3.9,29.9c-2,7.4,2.3,11.3,9.8,10.9
		c4.2,0.3,5.9-2.4,6.7-5.8c4.2-18.1,4.6-36.6,5-55c0.1-2.7-1.2-3.7-3.8-3.5c-5.1-2-10.5-1-15.7-2.1c-1.4-1-2.9-2-4.3-3
		c2.4-6.3,1.7-7.4-6-9.9c-5.8-7-11.7-14-17.5-21c4.2-38.5,9-77,10.6-115.8c6.8,0.3,8.9-3.1,8.3-9.5c-0.4-3.4,0.3-7,0.5-10.5
		c21.1,0.1,42.1,0.1,63.2,0.2c-2.6,22.2-4.2,44.4-3,66.8c0.2,3.2,0.5,5.3,4.3,6c7.7,1.6,15.2,4.1,23.1,4.4
		c3.7,18.9,7.9,37.6,13.7,56c3.3,10.4,2.9,20.8-2.2,30.8c-6.4,4.9-12.6,10.1-17.3,16.8c-2.1,2.9-4.3,6.3-2.2,9.7
		c2.4,3.7,6.3,2.1,9.6,1.1c11.3-3.3,20.2-10.2,27.8-18.9c1.4-1.6,2.4-4.3,5.9-4.2c-0.4,1.7-0.7,3.1-1.1,4.4
		c-2.1,7.1-5.2,14-5.3,21.6c-0.1,6.1,3,8.2,8.8,5.9c4.4-1.8,7.6-4.8,9.7-9.1c4.9-10.3,9.8-20.5,14.8-30.7c3.4-7,3.2-7.8-4.5-11.3
		c0.1-2.7,0.3-5.3,0.4-8c0.8-21.4,2.8-42.7-0.6-64c4.9-0.2,6.7-2.8,6.4-7.7c-0.4-6.2,0.1-12.4-0.1-18.6
		c-0.7-16.7,6.5-29.5,19.4-39.5c4.7-3.7,9.6-7.2,13.6-11.7c6,0,12,0,18,0.1c9.7,0.1,13.7,4.3,14,13.9c0.1,4.9-1.2,9.9,0.9,14.6
		c-0.9,4.3-1.9,8.6-2.9,13.4c-4.1-4.6-5.3-10.5-11.2-15c2.5,8.2,4.5,15.1,6.7,22.6c-11.8-7.1-22-15.8-36.6-18.6
		c8.1,14.5,17.5,25.7,33.5,28.7c5.8,1.1,9.3,3.2,10.5,8.9c-2.2,1.5,0,4.6-2.2,6.1c-1.8-1-3.6-1.9-5.4-2.9c-9.7-5.5-20-9.1-31.2-9.3
		c-1.5,0-3.6-0.5-4.3,1.5c-0.5,1.5,0.8,2.7,1.8,3.7c7.3,7.9,15.8,14.2,26.3,16.8c5.4,1.3,10.1,3.6,13.9,7.6
		c-0.1,3.1-0.2,6.2-0.4,9.3c-10.1-4.2-20.2-8.5-31.5-7.9c-1.3,0.1-3.2-0.7-3.8,1c-0.5,1.6,1.2,2.5,2.1,3.4
		c9.7,9.8,21.1,17.2,33.5,23c0,4.1,0,8.2,0,12.4c-6.6-2.9-13-6.4-20.1-7.9c-9.1-2-18.1-2.3-26.9,3.9c7.7,1.7,15.3,2.1,20.3,7.5
		c7.8,8.5,17.1,14.9,26.9,20.8c0,2.3,0,4.5,0,6.8c-6.2-1.7-12.2-3.8-18.6-4.5c-8.7-1-16.9,0.4-25.1,5c13.5,11.1,28.1,18.1,43.7,23.3
		c0,1.6,0,3.2,0,4.7c-3.9,0.1-7.8,0.2-11.7,0.2c-13.9,0-13.9,0-10.1,13.6c0.9,4.2,1.7,8.5,2.7,12.7
		C836.8,512.9,840.8,530.6,844.8,548.3z"/>
	<path id="XMLID_261_" class="st3" d="M77.2,387.3c0.1-35.2,0.1-70.4,0.1-105.6c0-5.6,1.5-9.8,7.7-10.9c28,0,56-0.1,83.9-0.1
		c11.4,0,14.1,2.8,14.1,14.4c0,49.7-0.1,99.5,0.1,149.2c0,5.9-0.3,11.3-5.7,15.2c9.6,3.8,10.8,5.6,10.8,15.4c0,2.9-0.2,5.8,0,8.7
		c0.5,6.2-1.6,10.9-7.5,13.6c-2.1,0.1-4.2,0.2-6.2,0.3c-10.4,0-20.8,0-31.2,0c-1,0-2-0.1-3.1-0.1c-5.3,0-10.6,0-16,0
		c-13.7,0-27.5,0.1-41.2,0.1c-7.4-0.9-10.3-3.9-10.6-11.1c-0.2-4.1,0.2-8.3-0.1-12.4c-0.5-7.4,2.3-12.5,10.4-14.4
		c-4.9-2.7-5.6-6.8-5.6-11.4c0.1-13.5-0.1-26.9-0.1-40.4C77.2,394.4,77.2,390.9,77.2,387.3z M104.8,281.5c17.8,3,35.7,3.7,53.7,2.7
		c10-0.6,12.3,1,12.4,10.9c0.1,16.4-1.5,32.7-2.3,49c-0.9,18.7,0.3,37.3,1.2,55.9c0.2,4.9,1.1,9.8,1.7,14.7
		c3.3-11.3,3.3-22.7,3.9-34c1.8-30.3-2-60.4-2.2-90.7c0-5.6-4.3-9.8-10.2-10.5C143.5,277.1,124.2,278.9,104.8,281.5z M109.4,447.3
		c0.1-0.2,0.1-0.4,0.2-0.6c-4.7-0.4-9.4-1-14.1-1.3c-6.9-0.5-10-3.6-9.2-10.3c1.6-13.2,1.2-26.4,0.9-39.7c-0.1-5.5-0.9-11-2.8-16.6
		c-1.5,2.5-1.7,5-2.1,7.4c-2.4,17.3-1.3,34.7,0,52c0.5,6.5,5.6,10.8,12.3,10.5C99.5,448.4,104.4,447.8,109.4,447.3z"/>
	<path id="XMLID_118_" class="st4" d="M723.4,353.3c-7.9-0.3-15.4-2.8-23.1-4.4c-3.8-0.8-4.1-2.8-4.3-6c-1.2-22.4,0.4-44.6,3-66.8
		c2.7-18.5,12.6-32.7,27-44c11.4-3.6,23.3-3.5,34.9-4.5c16.4-1.4,32.3-4.5,47.9-9.7c2.6-0.9,4.2-2.2,5.6-4.3
		c2.6,0.9,4.9-0.5,7.3-0.9c5.6,14.2,9.5,28.7,6.7,44.2c-1.2,7.1-4.2,13.4-8.4,19.1c-4,4.5-8.9,8-13.6,11.7
		c-12.8,10-20,22.8-19.4,39.5c0.2,6.2-0.2,12.4,0.1,18.6c0.3,4.9-1.4,7.5-6.4,7.7c-2.5,0.1-4.9,0.3-7.4,0.4
		C756.8,354.4,740.1,355.1,723.4,353.3z"/>
	<path id="XMLID_117_" class="st4" d="M851.9,463.9c-15.6-5.1-30.2-12.1-43.7-23.3c8.2-4.6,16.4-5.9,25.1-5
		c6.4,0.7,12.5,2.8,18.6,4.5c8.4,4.1,16.6,8.6,24.8,14.4c0.3-5.3-0.1-9.6-0.9-13.8c-0.3-1.9-0.8-3.1-3-2.8c-7.5,0.9-14.1-2-20.9-4.5
		c-9.7-5.9-19.1-12.3-26.9-20.8c-5-5.5-12.6-5.8-20.3-7.5c8.9-6.2,17.8-5.9,26.9-3.9c7.1,1.6,13.5,5.1,20.1,7.9
		c6.9,4.8,13.8,9.5,21,14.5c0.4-4.1-0.3-7.7-0.9-11.3c-1.7-11-1.7-11-12.3-13.6c-2.6-0.6-5.2-1.3-7.7-2c-12.5-5.8-23.8-13.2-33.5-23
		c-1-1-2.7-1.9-2.1-3.4c0.6-1.8,2.5-1,3.8-1c11.3-0.6,21.4,3.7,31.5,7.9c5.3,3.5,10.6,7.1,16,10.7c0.7-2.5-0.4-4.4-0.7-6.5
		c-1-6.7-1.8-13.5-11.4-12.4c-1.1,0.1-2.3-0.7-3.5-1.1c-3.9-3.9-8.5-6.2-13.9-7.6c-10.6-2.6-19.1-8.9-26.3-16.8
		c-1-1.1-2.3-2.2-1.8-3.7c0.7-2,2.8-1.5,4.3-1.5c11.3,0.2,21.5,3.8,31.2,9.3c1.8,1,3.6,2,5.4,2.9c1.4,2,3.4,3.3,5.6,4.4
		c0.4,0.1,0.9,0.3,1.3,0.4c-0.2-0.4-0.3-0.8-0.5-1.3c-1.4-3.2-2.8-6.4-4.2-9.6c-1.2-5.7-4.7-7.9-10.5-8.9c-16-3-25.4-14.2-33.5-28.7
		c14.5,2.9,24.8,11.5,36.6,18.6c-2.2-7.5-4.3-14.4-6.7-22.6c5.8,4.4,7.1,10.4,11.2,15c1-4.8,2-9.1,2.9-13.4c1.8-6,3.4-12,8.1-16.6
		c1.1-1.1,2.7-2.5,4.4-1.6c1.6,0.9,0.4,2.6,0.3,4c-0.2,6.4-0.8,12.9-0.5,19.3c0.3,6.6-2.1,11.8-7.1,15.7c-2.8,2.2-3.5,4.1-2,7.7
		c2.6,5.9,4.3,12.3,6.6,19.1c8-16.1,12.5-34,28.6-44.6c-3.9,10.7-3.9,22-6.9,32.7c-2.6,9.2-7.8,16.5-17.2,19.8
		c-2.1,0.8-3.1,1.3-2.2,3.9c2.4,7,4.5,14.2,7.1,22.5c6.2-14.9,9.1-30.4,23.4-39c-0.7,17.6-1.3,35.2-16.5,47.5
		c-1.9,1.5-2.7,2.7-2.1,5.1c1.8,7,3.5,14.1,5.2,21.4c6-10.4,11.4-20.8,14.2-32.3c0.2-1,0.5-2,0.8-3c2.4-8.8,10.4-15.9,10.2-24.8
		c-0.1-9-0.7-18.2-0.6-27.3c0-3.7-0.1-7.5,1.3-11.1c6.3,4.5,7.8,9.5,8.9,29.8c2.3-1.8,4.1-3.9,6.4-4.9c3.9-1.7,1,1.4,1.4,2.3
		c-0.3,0.5-0.7,1.1,0.1,1.5c0.1,0.1,0.6-0.5,0.8-0.7c5-2,9.5-5,14.9-6c1.6-0.3,3.5-0.8,4.6,0.8c1,1.6-0.6,2.7-1.5,3.7
		c-6,7.3-12.3,14.3-23,13.7c-2-0.1-3.1,0.7-3.9,2.3c-1.9,3.6-3.8,7.2-6,11.3c11.8,0,23.1,1.6,34-2.7c-10.7,10.7-22.9,17.7-38.6,15.8
		c-2.5-0.3-3.9,0.2-5.1,2.2c-2.7,4.6-6.1,8.9-7,14.4c-0.1,0.5-0.3,0.9-0.4,1.4c0.5-0.1,0.9-0.1,1.4-0.2c12.1-6.4,25.1-9.2,40.2-10.2
		c-11.8,12.1-23.9,20.4-39.8,21.5c-3.2,0.2-4.7,1.1-5.5,4.2c-2.3,8.8-8.4,16.8-5.2,27.2c7-6.5,13.3-13.3,20.6-18.9
		c6.8-5.2,13.6-10.2,22-12.5c2.5-0.7,4.9-0.9,7.4-0.8c2.5,0.1,3.5,1.1,2.1,3.5c-8.9,15.2-19.4,29-36.2,36.3
		c-3.5,1.5-7.1,2.8-10.8,2.6c-6.2-0.3-7.9,3-7.7,8.3c-1.2,0-2.4,0-3.7,0c-0.4-1.7,1.1-4.6-2.8-4
		C867.5,466.1,859.7,464.8,851.9,463.9z"/>
	<circle id="XMLID_116_" class="st5" cx="77.2" cy="551.7" r="10.9"/>
	<circle id="XMLID_115_" class="st5" cx="117.8" cy="551.7" r="10.9"/>
	<circle id="XMLID_114_" class="st5" cx="190.5" cy="551.7" r="10.9"/>
	<path id="XMLID_113_" class="st3" d="M821.7,212.5c-2.4,0.5-4.7,1.9-7.3,0.9c-0.8-5.1-4.2-5.5-8.3-4.4c-4.3,1.2-8.7,2.6-13,3.9
		c-2.5,0.8-4.4,0.9-4.7-2.6c-0.7-9-1.5-18-2.3-26.9c4.6,0.1,9.1,0.3,13.7,0.3c2.9,0,5.1-1.1,4.1-4.5c-2.7-10.3-1.6-20.3-0.1-30.7
		c0.7-5.2,0.5-11.5-3.2-17.4c-1.8,4.7-2.2,8.5-2.5,12.5c-0.6,7.3,1.5,14.4,1.4,21.6c-0.2,12.4-0.5,12.6-12.2,11.2
		c-0.4-0.1-0.8-0.1-1.2-0.2c-2.7-5.1-1.7-10.7-2.6-16.1c-1-5.7-3.4-7.6-9.1-7c-16.1,1.5-32.2,4.3-48.5,4.3
		c0.2-6.3,2.9-12.4,1.9-18.8c-3.2,6.3-5.5,12.8-5.3,19.9c-6.6,0.1-13.1,2.6-19.7,1.1c-2-9-5.8-17.5-8.9-26.1
		c-1.3-3.6-1.7-6.6,0.6-9.8c3.7-2.1,5.4-5.6,6.6-9.5c2-3.1,3.8-3,5.9,0.1c2.9,4.3,6,8.4,9.1,12.5c1.6,2.1,3.2,2.8,4-0.7
		c0.7-2.8,1.7-5.5,2.4-8.3c3.7-14.5,13.1-24.4,25.8-31.6c0.2,0.2,0.3,0.4,0.5,0.6c-1.2,3.6-5.1,4.7-6.9,7.8
		c-0.8,1.4-2.8,2.6-1.9,4.3c1.1,2.1,3,0.3,4.3-0.1c14.4-4.1,14.4-4.2,21.8,9.5c3.6,6.6,3.8,6.7,8.6,1c6.8-8.1,13.5-16.2,20-24.5
		c2-2.5,3.7-3.1,6.8-2.1c13.7,4.5,22.7,13.7,24.6,27.7c4.3,31,5.2,62.1-0.5,93.1C825.2,206.9,823.9,209.9,821.7,212.5z"/>
	<path id="XMLID_112_" class="st6" d="M635.8,275.9c-0.2,3.5-0.9,7-0.5,10.5c0.7,6.4-1.4,9.9-8.3,9.5c-23.9,0.4-47.7,0.8-71.6,1.2
		c-6.7-1-13.5-1.2-20.2-1.1c-7.1-1.3-8.4-2.9-7.8-11.1c0.6-8.8,1.7-17.6,2.5-26.3c0.3-2.9,0.3-5.7,0.5-8.6c1.1-4.9,1.6-9.8,1.4-14.8
		c14.1-0.1,28.2-0.1,42.2-0.3c21.4-0.2,18.8,3.1,18.9-18.6c0.1-9.9,0.2-19.9,0.2-29.8c4.2,7.3,8.2,14.8,12.7,22
		c9,14.6,17.2,29.8,30.6,41.1C636.4,258.4,636.1,267.1,635.8,275.9z"/>
	<path id="XMLID_251_" class="st7" d="M786.2,183.5c0.8,9,1.6,18,2.3,26.9c0.3,3.5,2.1,3.4,4.7,2.6c4.3-1.3,8.6-2.7,13-3.9
		c4.1-1.2,7.4-0.7,8.3,4.4c-1.4,2.1-3,3.4-5.6,4.3c-15.6,5.2-31.5,8.3-47.9,9.7c-11.7,1-23.6,0.9-34.9,4.5
		c-7.2-2.2-14.2,0.3-21.1,1.1c-7.9,0.9-10.3-0.5-11.1-8.6c-1.9-18.5-4-37.1-5.9-55.6c-0.5-4.9,2.4-7.1,6.9-7.6
		c2.8-0.3,5.9,1.1,8.2-1.6c6.7,1.4,13.1-1,19.7-1.1c1.1-0.4,2.3-0.7,3.4-1.1c16.3,0,32.3-2.8,48.5-4.3c5.7-0.5,8.1,1.3,9.1,7
		c0.9,5.4-0.1,11,2.6,16.1C785.5,178.7,785.9,181.1,786.2,183.5z M744.9,194.2c-0.2-4.6-1.8-7.8-5.8-7.6c-3.6,0.2-6.8,2.2-6.7,6.7
		c0.1,4.2,2.4,6.8,6.6,6.5C742.6,199.5,745.3,197.6,744.9,194.2z"/>
	<circle id="XMLID_109_" class="st5" cx="160.8" cy="551.7" r="10.9"/>
	<path id="XMLID_243_" class="st7" d="M593.3,186.5c-0.1,9.9-0.2,19.9-0.2,29.8c-0.2,21.7,2.5,18.4-18.9,18.6
		c-14.1,0.2-28.2,0.2-42.2,0.3c-4.1-0.1-8.3-0.3-12.4-0.4c-4.6-0.7-5.1-4-5.1-7.8c0.1-15.5,0-31,0-46.6c0.5-0.8,1.6-1.8,1.5-2.5
		c-1.7-9.7,2.8-18.1,5.4-26.9c1.8-6-0.1-7.4-6.6-6.7c-0.1-2.2-0.2-4.5-0.2-6.7c-0.1-4.3,2.2-6.1,6.4-6.3c3.3-0.2,6.9,1.4,9.9-1.4
		c2.2,1,4.5,0.7,6.7,0.7c15.1,0,30.2,0,45.3,0c9,0,10,1,10.3,9.7c0,0.8,0.3,1.6,0.4,2.4C592.7,157.4,593,171.9,593.3,186.5z
		 M553.9,151.3c6.4,0,12.9,0,19.3,0c2.2,0,4.3-0.4,4.6-3.1c0.4-3.1-2-4.2-4.2-4.2c-13.1-0.2-26.1-0.2-39.2-0.1
		c-2.5,0-4.6,1.5-4.7,4.1c-0.1,3.2,2.5,3.3,4.9,3.3C541,151.4,547.4,151.3,553.9,151.3z M553.7,216.1c-6.2,0-12.4,0-18.7,0
		c-2.3,0-5.1-0.3-5.4,2.8c-0.2,3,2,4.5,4.8,4.6c12.9,0.1,25.7,0.1,38.6,0c2.3,0,4.8-0.8,4.7-3.8c-0.1-3.5-2.8-3.5-5.4-3.5
		C566.2,216.1,560,216.1,553.7,216.1z M549.5,202.4c-4.8,0-9.5,0-14.3,0c-2.5,0-5.4-0.2-5.6,3.3c-0.2,3.4,2.6,4,5.2,4
		c10,0.1,19.9,0.1,29.9,0.1c2.6,0,4.6-0.8,4.5-3.8c-0.1-3.1-2.2-3.6-4.7-3.6C559.4,202.4,554.5,202.4,549.5,202.4z M549.9,158.8
		c-5.2,0-10.4,0-15.6,0c-2.2,0-4.5,0.2-4.7,2.9c-0.1,2.6,1.9,4.3,4.3,4.4c10.4,0.2,20.7,0.1,31.1-0.1c2,0,4.2-1,4-3.8
		c-0.1-2.7-2-3.4-4.3-3.4C559.8,158.8,554.9,158.8,549.9,158.8z M541.7,173.8c-2.9,0-5.7-0.1-8.6,0c-1.8,0-3.3,0.8-3.4,2.8
		c-0.1,2.4,1.5,3.3,3.5,3.3c5.5,0.1,11.1,0,16.6,0c1.9,0,3.1-0.7,3.2-2.8c0.1-2.3-1-3.4-3.3-3.4C547,173.8,544.4,173.8,541.7,173.8z
		"/>
	<path id="XMLID_102_" class="st6" d="M844.8,548.3c-4-17.7-8-35.4-12-53.2c-0.9-4.2-1.8-8.5-2.7-12.7c32.6,0,65.1,0,97.7,0.1
		c-5.1,20.5-10.2,40.9-15.3,61.4c-1.2,4.6-2.5,9.2-3.5,13.8c-0.8,4-2.3,5.8-6.9,5.7c-16-0.4-31.9-0.3-47.9,0
		c-4.5,0.1-6.3-1.5-6.9-5.6C846.8,554.6,845.7,551.5,844.8,548.3z"/>
	<path id="XMLID_238_" class="st6" d="M593.5,142.8c-0.1-0.8-0.4-1.6-0.4-2.4c-0.4-8.7-1.3-9.7-10.3-9.7c-15.1,0-30.2,0-45.3,0
		c-2.3,0-4.6,0.3-6.7-0.7c6.6-14.2,15.6-20.5,28.1-19.9c6.2,5.3,13.3,7,21.4,8.3c11.6,1.8,19.8-1.3,26.2-10.6
		c14.4-0.4,28.9,3.9,33.8,22.6c2.3,8.5,5.8,16.8,8.5,25.2c3.1,9.5,7,18,13.7,25.9c10.9,12.7,13.1,28.2,8.6,44.4
		c-1.7,5.9-5.2,10.8-11,13.5c-2.8-2.4-5.8-4.7-8.5-7.2c-11.7-10.5-18-25.1-27.8-37c0.3-11.6-1.8-22.7-5.2-33.6
		c-2.3,9.9,0.3,19.3,1.6,28.9c-8.7-10.6-20.4-19.4-18-35.9C603.1,149.1,600.3,143.8,593.5,142.8z M658.9,194.9
		c0.1,0.1,0.1,0.3,0.2,0.4c0.1,0.1,0.2,0.1,0.3,0.1C659.3,195.3,659.1,195.1,658.9,194.9c-4-8.9-17.7-10.5-26.1-1.9
		C642.4,191.2,650.9,190.9,658.9,194.9z M632.8,196.8c7.8,3,16.1,4.5,23,9.6c1.1,0.8,2.5,3.2,4,1c1.1-1.6-0.7-3-1.9-4.1
		C650.8,196.3,641.6,197.2,632.8,196.8z"/>
	<path id="XMLID_98_" class="st8" d="M261.6,386.9c14.8,0.1,29.7,0.1,44.5,0.2c10.1,0.9,20.3,1.3,30.4-0.2c12.7,0.1,25.3,0.2,38,0.3
		c3.8,1.3,7.8,0,11.7,0.7c2.1,4.6,1.7,9.3,0.1,13.9c-11.1,1.1-11.5,1.1-12,12.7c-1,22.8-1.6,45.6-2.3,68.3
		c-0.7,22.6-1.5,45.2-2.1,67.7c-0.1,4.1-0.6,7.5-5.8,7.6c-5.6,0.2-5.7-3.8-5.9-7.6c-0.7-25.7-1.4-51.4-2.1-77.1
		c-0.6-22.4-1.6-44.7-1.9-67.1c-0.1-5.3-3.1-4.3-6-4.3c-38.6,0-77.2,0-115.8,0c-13.1,0-26.1-0.1-39.2-0.1c-0.1-4.8-0.1-9.6-0.2-14.4
		c9.2,0,18.5,0.2,27.7,0c5.3-0.1,10.7,1.2,15.8-1C244.9,387.5,253.2,387.4,261.6,386.9z"/>
	<path id="XMLID_234_" class="st9" d="M535.3,296c6.8,0,13.5,0.2,20.2,1.1c-0.4,4.2,1.2,8.2,1.1,12.2c-0.1,25.6,2.2,51,2.6,76.6
		c0.2,13.6,2,27.2,1.2,40.8c-0.1,2.1,2.5,4.3-0.2,6.2c-9.4-5.2-16.9-13-25.7-19c-7.9-8.1-16.6-15.5-23.5-24.6
		c-6.3-8.2-8.1-16.8-5.4-26.8c5.3-20,14.7-38.1,24.3-56.2C531.7,302.9,533.5,299.4,535.3,296z M530.2,385.6
		c-1.6-2.4-2.2-3.5-2.9-4.4c-5.9-7.5-6.5-15.4-3.6-24.4c2.7-8.5,6-16.6,9.5-24.8c2-4.7,3.9-9.4,5.9-14c-0.5-0.2-1-0.4-1.6-0.6
		c-6.9,14.2-15.3,27.7-20,42.9C514.3,370.1,519.5,380.4,530.2,385.6z"/>
	<path id="XMLID_95_" class="st7" d="M188.6,193.7c35,0,70.1,0,105.1,0c9.8,0,13.9,4.1,13.9,14c0,40.4,0,80.9,0,121.3
		c0,9.8-3.2,12.9-12.9,12.9c-16.4,0-32.8,0-49.1,0c-2.2,0-4.6-0.8-6.4,1.2c-8.6,0-17.3-0.1-25.9-0.1c0-4.6,0-9.1,0-13.7
		c24.1,0,48.1-0.2,72.2,0.1c5.9,0.1,7.4-1.9,7.4-7.6c-0.2-35.3-0.2-70.5,0-105.8c0-5.9-1.4-7.7-7.5-7.7c-33,0.2-66,0-99,0
		C187.9,203.6,188.4,198.7,188.6,193.7z"/>
	<path id="XMLID_94_" class="st1" d="M188.6,193.7c-0.2,5-0.7,10-2.1,14.8c-0.8,1.4-1.7,2.7-2.5,4.1c-4.7,5.3-8.9,11-6.7,18.6
		c2.2,7.7,2.7,16.4,10.9,21.1c-0.2,5.4-0.6,10.8-4.7,15.1c-4.5-2.4-5.8-6.6-6.6-11.2c-1.5-8.8-1.6-17.7-2.3-26.5
		c-0.2-2.8-0.1-6.3-4.4-6.1c-3.6,0.2-5.5,2.7-5.8,6.2c-0.5,6.5,0.8,12.7,6.4,16.6c2.8,1.9,2.6,3.6,1.8,6.1
		c-1.9,5.8-5.6,10.6-8.4,15.9c-10.6,0-21.3,0-31.9,0c-0.9-3.9-2.4-7.5-5.2-10.4c-5-5-8.8-10.9-12.2-17c-5.1-16.4-4.6-31.9,7.4-45.5
		c10.9-7.6,23.3-7.1,35.7-6.9c5.1,0.1,10.3,0.6,15.4,0.7c2.2,0,4.6-0.1,6.7-0.9C187.2,185.8,187.2,185.7,188.6,193.7z"/>
	<path id="XMLID_93_" class="st1" d="M732.3,34.7c-5.1-5.3-6.3-12.1-3.1-18.1c2.6-5,6.7-7.6,12.3-5.6c4.7,1.7,8.8,1,13-1.4
		c3.8-2.2,8.4-3.9,12.5-2.5c6.6,2.3,11.5,0.4,16.7-3.6c3.6-2.8,8.3-3.6,13-3.5c11.1,0.4,16.7,6.1,16.9,17.2c0.1,8-2.1,15.5-4.7,23
		c-1.5,4.3-3.3,8.5-4.8,12.8c-1.9,5.8-0.1,7.9,5.8,7c1.9-0.3,4.2-2.3,5.5,0.3c1.2,2.2,0.9,4.9-0.7,7.1c-4.3,6.2-10.6,8.6-17.7,8.7
		c-6.8,0.1-11.7-3.2-15.1-9.1c-1-1.8-0.4-4.9-3.6-5.1c-2.2-6.5-4.2-13.3-11.7-15.7c-6.2-2-10.6-6.2-14.7-11
		c-4.2-5-6.9-10.9-9.1-17.3C736.1,22,735.1,28.9,732.3,34.7z"/>
	<path id="XMLID_92_" class="st8" d="M77.2,387.3c0,3.5,0,7.1,0,10.6c-4.3,0.8-10.8-2.9-11.4,5.5c-9.8-2.4-19.8-0.6-29.6-1
		c-3.5-0.1-2.3,2.8-2.4,4.6c-1,26.7-1.8,53.4-2.7,80.2c-0.7,21.3-1.6,42.7-2.2,64c-0.1,4-1.2,6.2-5.7,6.2c-4.5,0-5.5-2.3-5.6-6.3
		c-0.8-31.3-1.8-62.6-2.6-93.9c-0.5-16.2-0.9-32.3-1.2-48.5c-0.1-4.3-0.8-7.2-6.2-6.5C1.7,403,0,399.9,0,394.4
		c0-5.5,2.3-7.2,7.5-7.2C30.7,387.4,54,387.3,77.2,387.3z"/>
	<path id="XMLID_91_" class="st10" d="M193.5,411.5c21.1-9.8,34.2-2.6,36.8,20.5c0.6,4.9,0.6,9.9,0.4,14.9c-1,24.4,2.4,48.3,7,72.1
		c0.3,1.4,0.3,2.9,0.4,4.3c-0.1,1.6-0.9,2.7-2.3,3.4c-10,4.4-20.4,6-31.2,3.3c-0.1-2.7,0.1-5.4-0.3-8c-1.7-12.3-3.6-24.5-5.4-36.8
		c11.5-3.9,16.3-11.8,14.4-23.8c-0.3-2,0-4.1-0.1-6.2c-0.2-7.5-3.8-11.4-11.3-12c-2.3-0.2-4.6,0-6.8-0.1c-1.6,0-2.7-0.2-2.5-2.4
		C193.6,430.9,191.9,421.2,193.5,411.5z"/>
	<path id="XMLID_90_" class="st1" d="M386.2,401.9c1.7-4.6,2-9.3-0.1-13.9c3.8-0.8,7.7,0.6,11.4-0.9c16,0.1,31.9,0.2,47.9,0.1
		c5.3,0,8,1.2,8.1,7.3c0,6.2-2.6,8.1-8.2,7.9c-4.6-0.2-9.1,0.2-13.7-0.1c-3.9-0.3-5,1.1-5,4.9c-0.5,21.5-1.3,43.1-2,64.6
		c-0.8,26.3-1.7,52.6-2.5,78.9c-0.1,3.9-0.3,7.7-5.8,7.7c-5.4,0-5.8-3.5-5.9-7.5c-1.1-41-2.2-82-3.3-123.1
		c-0.2-7.2-0.7-14.5-0.7-21.7c0-3.1-1.1-3.8-4-3.8C397,402.3,391.6,402.1,386.2,401.9z"/>
	<path id="XMLID_89_" class="st2" d="M534.5,414c8.8,6,16.4,13.8,25.7,19c3.2,8.1,1.5,16.7,2.1,25c1.3,17.7,1.6,35.5,2.4,53.3
		c-1.8,2.3-5.1,3.8-3.5,7.6c1.6,3.9,5,3.5,8.2,3.5c1.2,0,2.4,0.1,3.6,0.2c0.9,2.3,1.7,4.7,2.6,7c-2.2,1.1-3,3.3-3.9,5.3
		c-9.3,6.1-18.8,10.7-30.5,7.7c-2.1-0.5-4.5,0-6.7,0C534.5,499.8,534.5,456.9,534.5,414z"/>
	<path id="XMLID_88_" class="st11" d="M193.5,411.5c-1.6,9.7,0.1,19.4-0.9,29.1c-0.2,2.2,0.9,2.4,2.5,2.4c2.3,0,4.6-0.1,6.8,0.1
		c7.5,0.6,11.2,4.5,11.3,12c0,2.1-0.3,4.2,0.1,6.2c2,12.1-2.8,19.9-14.4,23.8c-6,0.8-11.9,3.3-18.1,2.3c5.9-2.6,8-7.3,7.5-13.6
		c-0.2-2.9,0-5.8,0-8.7c0-9.8-1.3-11.6-10.8-15.4c5.4-3.9,5.7-9.4,5.7-15.2c-0.1-49.7-0.1-99.5-0.1-149.2c0-11.6-2.7-14.4-14.1-14.4
		c-28,0-56,0-83.9,0.1c4.3-4.3,9.9-1.3,14.8-2.6c4.6,0,9.1,0,13.7,0c6.3,0,12.6,0,18.9,0c10.6,0,21.3,0,31.9,0c6.4,0,12.9,0,19.3,0
		c6.9,1.7,9.7,6.3,9.3,13.2c-0.2,2.6,0.2,5.3,0.3,8c-1.1,1.5-0.8,3.2-0.8,4.8c0,29.8,0,59.6,0,89.3c0,1.4,0.4,2.8,0.6,4.2
		c0.1,4.8,0.1,9.6,0.2,14.4C192.5,405.4,192.3,408.5,193.5,411.5z"/>
	<path id="XMLID_87_" class="st12" d="M305.2,100.3c-2.6-0.4-4.2,1.1-5.9,2.8c-4.1,3.8-8.4,7.3-12.3,11.2c-2.8,2.8-4.2,1.7-5.1-1.4
		c-4.3-15.1-8.5-30.2-12.7-45.2c-2.5-8.9-4.9-17.8-7.6-26.6c-1.2-3.9-0.1-4.9,3.8-3.8c19.8,5.7,39.6,11.3,59.3,16.9
		c5.5,1.6,11.1,3.2,16.6,4.8c3.6,1,5,2.9,1.6,5.4c-7.9,5.8-13.8,13.7-21.4,19.8C305.8,72,290,59.8,273.7,47.2
		c-0.5,3.3,0.6,4,1.4,4.9c10,10.4,19.9,21,30.1,31.2c4.3,4.3,7.6,8,1.1,13C305.1,97.2,305.2,98.9,305.2,100.3z"/>
	<path id="XMLID_86_" class="st6" d="M124.4,487.6c5.3,0,10.6,0,16,0c0,11.1-0.1,22.3,0,33.4c0,1.1-1.3,4,2.2,2.8
		c1.1,1,2.4,1.5,3.9,1.4c10.9-0.1,21.7-0.2,32.6-0.3c5.7,1.2,11.5,0.6,17.2,0.6c4.1,0,6.3,1.4,6.1,5.7c-0.6,3.2,0.7,6.8-1.5,9.8
		c-3.2,0.1-6.5,0.2-9.7,0.3c-6.3,0-12.5,0.1-18.8,0.1c-3.5,0-7,0-10.5,0.1c-6.1,0-12.3,0.1-18.4,0.1c-13.4,0-26.8-0.1-40.2-0.1
		c-4,0-7.9,0-11.9,0c-3.3,0.1-6.6,0.2-9.9,0.3c-2.9-0.8-5.8-0.4-8.7-0.2c-3-0.2-6-0.3-9-0.5c-2.1-3.6-1.2-7.6-1.2-11.4
		c0-4.1,3.7-3.7,6.2-4.5c4.5,0,9,0,13.5,0c12.9,1.3,25.9,0.4,38.9,0.4c3.4,0,3.4-2,3.4-4.5C124.4,509.9,124.4,498.7,124.4,487.6z"/>
	<path id="XMLID_85_" class="st13" d="M623.9,195c9.8,11.9,16.1,26.5,27.8,37c2.8,2.5,5.7,4.8,8.5,7.2c-6.2,7.2-12.8,13.7-23.6,10.3
		c-13.4-11.3-21.7-26.5-30.6-41.1c-4.4-7.2-8.4-14.7-12.7-22c-0.3-14.6-0.6-29.1,0.2-43.7c6.8,1,9.6,6.3,8.8,11.6
		c-2.4,16.5,9.3,25.3,18,35.9C621.5,191.9,622.7,193.5,623.9,195z"/>
	<path id="XMLID_84_" class="st1" d="M574.2,94.4c-5.8-7.5-12.9-13.9-17.5-22.4c-3.5-6.5-5.5-13.2-5.1-20.7
		c0.6-12,7.5-19.7,19.3-20.9c9.9-1,19.5-2.9,29-6.1c7.1-2.5,12.6-0.5,15.9,4.5c4.6,7,2.5,13-5.4,15.6c-9.4,0.6-18.8-0.1-28.5-1.1
		c2.3,7.9-0.9,14.7-2.5,22.3c3-1.2,7.6,1.6,6.8-4.6c-0.1-1.1,0.9-1.8,2-2c7-1,13.9-3.3,21.1-2.4c-0.5,1.3-0.9,2.6-1.4,3.8
		c-0.3,0-0.7,0-1,0.1c-0.6-0.2-1.1-0.4-1.7-0.6c-0.4-0.5-0.7-0.3-1,0.2c-4,0.6-8,1.4-12,1.8c-3.7,0.4-3.9,2.1-2.5,4.9
		c1.2,2.4,3.3,3.4,5.8,4c0,0.6,0,1.1,0,1.7c-2,0.1-4.2-0.4-5-1.9c-2.4-4.3-6-3.2-9.6-2.7c-2.9,0.4-5.5,2-8.8,0.2
		c-2.1-1.2-3.8,0.9-4.1,3.3c-0.5,3.7,0,7.6,2.9,9.6C576.5,84.7,575.5,89.4,574.2,94.4z"/>
	<path id="XMLID_83_" class="st13" d="M732.3,34.7c2.8-5.8,3.8-12.7,10.6-17c2.1,6.4,4.8,12.3,9.1,17.3c4,4.8,8.4,9,14.7,11
		c7.5,2.4,9.6,9.1,11.7,15.7c0,1-0.3,2.2,0.1,3.1c4.2,8.3-0.4,12.7-6.9,16.4c-2.7,1.5-5.2,3.5-7.5,5.5c-3.1,2.8-5.8,3.1-5.9-1.8
		c-0.3-10.4-4.3-15.2-15.4-13.5c-4.8,0.8-6.4-3.7-8-7.9c-1.7-4.5,2.7-11.2-4.6-13.8c-0.1-0.1,0.3-1.9,0.6-2.9
		C731.7,42.9,732.7,38.9,732.3,34.7z"/>
	<path id="XMLID_82_" class="st13" d="M574.2,94.4c1.3-5,2.3-9.7-3.2-13.4c-2.9-2-3.4-6-2.9-9.6c0.3-2.4,2-4.4,4.1-3.3
		c3.2,1.8,5.9,0.2,8.8-0.2c3.6-0.5,7.1-1.6,9.6,2.7c0.8,1.5,3,2,5,1.9c8.3,0.4,10.9-1.4,13.6-9.4c1.3-0.3,2.2,0.1,2.8,1.2
		c0.6,2.5,2.7,3,4.8,3.4c1.2,3.1,2.4,5.7-0.9,8.8c-1.7,1.6-0.1,5.1,0.2,7.8c1,9.1-0.6,11.5-9.5,13.2c-7.4,1.4-2.2,7-3.6,10.3
		c-11.7,5.5-23.2,12.6-35.9,2.3C574.3,107.8,574.3,107.8,574.2,94.4z"/>
	<path id="XMLID_217_" class="st13" d="M464.8,228.6c-1.8-18.4-9.4-34.1-21.9-47.5c-8.1-8.7-17.5-15.8-28.9-19.9
		c-7.6-2.7-8.1-2.4-8.1,5.4c0,7.7-2,14.7-5.9,21.3c-2.3,3.8-5.2,7-9.2,9c-6.3,3.2-13.4,2.2-18.5-2.5c-4.3-4-5.4-10.1-2.5-16.7
		c4.4-10,12.2-16.6,21.7-21.3c2-1,4.1-1.9,6.6-3c-7.7-11.4-18.4-16.8-31.3-18.3c-7.6-0.9-15.3,0.3-22.9-1.1
		c-8.4-1.6-15.8-4.6-20.9-12.2c0.8-0.1,1.6-0.4,2-0.1c9.5,8.1,20.6,8.5,32.2,7.7c18.9-1.4,34.9,3.7,45,21.1c0.8,1.4,1.7,2.1,3.4,2.2
		c17.4,0.7,29.8,10.7,40.6,22.6C459.9,190.2,466.9,207.9,464.8,228.6z M402.7,168c-0.1-0.8-0.1-2.8-0.4-4.9
		c-0.2-2.3-1.3-3.3-3.8-2.4c-10.8,3.7-19.6,9.9-24.6,20.4c-3,6.3-0.5,11.5,6.1,13.8c6,2.1,11,0,15.1-4.5
		C400.5,184.4,402.8,177.3,402.7,168z"/>
	<path id="XMLID_79_" class="st1" d="M200.8,541.1c2.1-3,0.9-6.5,1.5-9.8c1,0,2-0.2,2.4-1.3c10.8,2.7,21.1,1.1,31.2-3.3
		c1.5-0.6,2.2-1.8,2.3-3.4c9.3,5.5,19.1,9.4,30.3,8c3-0.4,6.2-0.1,9.2,0.3c4.6,0.7,7.7,3,6.6,8.3c-4.5,3.1-9.5,4.9-14.7,6.3
		c-15,4-30.4,3-45.6,3.7C214.7,550.4,205.7,551.2,200.8,541.1z"/>
	<path id="XMLID_78_" class="st14" d="M927.9,482.5c-32.6,0-65.1,0-97.7-0.1c-3.8-13.6-3.8-13.5,10.1-13.6c3.9,0,7.8-0.1,11.7-0.2
		c8.7,0,17.5,0,26.2,0c1.2,0,2.4,0,3.7,0c16.5,0,32.9,0,50.1,0C930.4,473.9,929.1,478.2,927.9,482.5z"/>
	<path id="XMLID_77_" class="st1" d="M82.2,525.1c-4.5,0-9,0-13.5,0c-0.9-35.4-1.8-70.8-2.7-106.1c-0.1-5.2-0.1-10.3-0.2-15.5
		c0.6-8.4,7.1-4.7,11.4-5.5c0.1,13.5,0.2,26.9,0.1,40.4c0,4.6,0.7,8.6,5.6,11.4c-8.1,1.9-10.9,7-10.4,14.4c0.3,4.1-0.1,8.3,0.1,12.4
		c0.3,7.2,3.2,10.2,10.6,11.1C82.9,500.2,82.5,512.6,82.2,525.1z"/>
	<path id="XMLID_76_" class="st1" d="M534.5,542.7c2.2,0,4.6-0.5,6.7,0c11.6,3,21.2-1.7,30.5-7.7c2.2,1.7,4.6,2.7,7.5,2.6
		c1.1,1.3,2.5,1,3.9,0.7c5.9,0.2,11.7,0.5,17.6,0.7c1.6,3,0.4,6.3,0.9,9.4c0,0.5-0.1,1-0.1,1.6l0.3-0.1c-0.1,2-0.2,4-0.3,6
		c-1.8,0.5-3.6,1.2-5.4,1.4c-22.5,1.8-45.1,3.5-67.5-1.5c-0.2-0.3-0.4-0.5-0.7-0.7c-0.3-0.5-0.5-1-0.8-1.5
		C526.6,547.9,529.4,544.5,534.5,542.7z"/>
	<path id="XMLID_75_" class="st13" d="M336.5,387c-10.1,1.4-20.3,1.1-30.4,0.2c-3.3-6.5-1.5-13.4-1.6-20.1
		c-0.3-17.8-1.1-15,15.2-15.2c4.3,0,8.7,0,13,0c3.3,0,5.2,1.2,4.9,4.7c0,2.3,0,4.5,0,6.8c0,4,0,8-0.1,12c0.2,2.2-0.9,4.7,1.4,6.5
		C338.2,383.6,337.4,385.3,336.5,387z"/>
	<path id="XMLID_74_" class="st7" d="M113.5,268.3c-4.6,0-9.1,0-13.7,0c0-20.5,0-41,0-61.4c0-10.2,3-13.3,13.3-13.1
		c3.1,0.1,6.7-1.6,9.3,1.6c-12,13.6-12.5,29.1-7.4,45.5c-2.1,1.5-1.4,3.7-1.4,5.7C113.4,253.8,113.5,261.1,113.5,268.3z"/>
	<path id="XMLID_73_" class="st11" d="M397.6,387.1c-3.7,1.4-7.7,0.1-11.4,0.9c-3.9-0.7-7.9,0.6-11.7-0.7
		c-2.5-9.2-5.1-18.4-7.6-27.6c12.5-0.4,25.1-0.9,37.6,0.2C402.2,369,399.9,378.1,397.6,387.1z"/>
	<path id="XMLID_72_" class="st13" d="M701.2,114.4c-1.1,3.9-2.9,7.3-6.6,9.5c-2.8-8.1-9.1-13-15.8-17.6c-6.5-4.4-7.8-12.6-3-18.8
		c2.5-3.3,3.2-6.4,1.7-10.3c-1.2-3.1-1.7-6.3-0.6-11.6C685.5,82.8,693.3,98.6,701.2,114.4z"/>
	<path id="XMLID_71_" class="st7" d="M305.2,100.3c0-1.5-0.2-3.1,1.1-4.1c6.5-5,3.2-8.6-1.1-13c-10.2-10.2-20.1-20.8-30.1-31.2
		c-0.8-0.9-2-1.6-1.4-4.9C290,59.8,305.8,72,321.5,84.1c0,6.4,0,12.8-0.1,19.3c0,7.4-0.1,7.5-6.6,3.5
		C311.5,104.9,308.4,102.5,305.2,100.3z"/>
	<path id="XMLID_70_" class="st2" d="M213.3,343.1c8.6,0,17.3,0.1,25.9,0.1c0,5.1,0,10.2,0.1,15.3c-4.3,1.9-9,3-12.6,6.2
		c-3.2,0.8-6.5,1.4-9.5,2.6c-3.5,1.4-4.4,0.2-4.3-3.1C213.1,357.1,213.2,350.1,213.3,343.1z"/>
	<path id="XMLID_69_" class="st14" d="M404.5,359.9c-12.5-1.1-25.1-0.7-37.6-0.2c-4.1,0.6-7.2,0.5-7.2-5.2c0-5.6,3.1-5.7,7.2-5.7
		c5.9,0.1,11.9,0,17.8,0c1.4,0.6,2.8,0.8,4.2,0.1c5.1,0,10.2,0,15.3-0.1c3.9-0.1,7.1-0.2,7.2,5.5C411.6,360,408.5,360.1,404.5,359.9
		z"/>
	<path id="XMLID_68_" class="st15" d="M609.2,56.6c-7.2-0.9-14.1,1.5-21.1,2.4c-1.1,0.2-2.1,0.8-2,2c0.8,6.1-3.8,3.4-6.8,4.6
		c1.6-7.6,4.8-14.3,2.5-22.3c9.7,1.1,19.1,1.8,28.5,1.1c1.2,3.3,2.5,6.6,3.7,9.9c-1.3,0.7-2.6,1.4-4,2.1
		C609.8,56.4,609.5,56.5,609.2,56.6z"/>
	<path id="XMLID_67_" class="st7" d="M261.6,386.9c-8.3,0.4-16.7,0.6-25-0.1c3.7-5.4,3.5-10.8,0.4-16.4c8.1,0,16.2-0.1,24.3-0.1
		C266.9,375.4,267,378.7,261.6,386.9z"/>
	<path id="XMLID_66_" class="st13" d="M514.7,144.4c6.6-0.7,8.4,0.7,6.6,6.7c-2.6,8.8-7.2,17.2-5.4,26.9c0.1,0.7-0.9,1.7-1.5,2.5
		c-5-5-7.9-10.9-8.7-17.9C504.9,154.7,507.8,148.5,514.7,144.4z"/>
	<path id="XMLID_65_" class="st4" d="M383.6,334.6c-8.2-0.7-10.6-3.8-9.2-11.7c1.1-5.8,4.2-11.3,2.2-17.7
		c11.7,4.4,17.4,20.1,10.7,28.3C386.1,333.8,384.9,334.2,383.6,334.6z"/>
	<path id="XMLID_63_" class="st13" d="M261.2,370.4c-8.1,0-16.2,0.1-24.3,0.1c-3.4-2-6.8-3.9-10.3-5.9c3.7-3.2,8.3-4.2,12.6-6.2
		C251.1,357.4,258.8,361.5,261.2,370.4z"/>
	<path id="XMLID_62_" class="st4" d="M392.5,336.8c-0.5-13.3,11.6-12.3,19.3-17.3c1.9,7.4,0.3,13.3-4.4,18.5
		c-3.7,4-8.1,3.2-12.6,1.4C394,338.5,393.2,337.6,392.5,336.8z"/>
	<path id="XMLID_61_" class="st4" d="M370.9,342.1c-2.5,0-5,0-7.5,0c-2.8,0-5-1.3-5.9-3.8c-2.2-6.2-1.7-12.4-0.3-20.5
		c5,8.9,17,10,15.4,21.4C372,340.1,371.5,341.1,370.9,342.1z"/>
	<path id="XMLID_60_" class="st14" d="M567,110.1c12.7,10.3,24.2,3.2,35.9-2.3c1.3,0,2.5-0.1,3.8-0.1c-6.4,9.3-14.7,12.4-26.2,10.6
		c-8.1-1.3-15.2-3-21.4-8.3C561.6,107.9,564.3,109.9,567,110.1z"/>
	<path id="XMLID_59_" class="st15" d="M337.7,363.3c0-2.3,0-4.5,0-6.8c9.7,2.4,13.7,7,12.4,15c-0.9,6.1-4.5,9.9-11,10.3
		c-2.4-1.8-1.2-4.3-1.4-6.5c4.3,0.8,6.1-1.8,6.4-5.5C344.3,365.8,342,363.5,337.7,363.3z"/>
	<path id="XMLID_58_" class="st8" d="M370.9,342.1c0.6-1,1.1-1.9,1.7-2.9c3.5,0.9,6.7-0.8,10.1-0.9c3.8-0.1,1.1-2.3,1-3.7
		c1.2-0.4,2.5-0.8,3.7-1.1c1,2.2,0.8,6.2,5.1,3.3c0.8,0.9,1.5,1.7,2.3,2.6c-2.8,2.7-6.5,4.7-5.8,9.5c-1.4,0.7-2.8,0.4-4.2-0.1
		c1.2-5.3,0-8-6.1-6C376.1,343.6,373.3,343.6,370.9,342.1z"/>
	<path id="XMLID_57_" class="st11" d="M519.5,234.9c4.1,0.1,8.3,0.3,12.4,0.4c0.2,5-0.3,9.9-1.4,14.8
		C525,246.3,520.4,241.9,519.5,234.9z"/>
	<path id="XMLID_56_" class="st1" d="M610.1,56.4c1.3-0.7,2.6-1.4,4-2.1c0.2,0,0.4,0.1,0.6,0.1c7.8-0.8,7.8-0.8,6.7,7.3
		c-0.4,0-0.7,0-1.1,0c0.9-4.6-2-4.1-4.9-3.7C613.6,57.7,611.4,58.6,610.1,56.4z"/>
	<path id="XMLID_55_" class="st8" d="M620.2,61.7c0.4,0,0.7,0,1.1,0c0,3.2-2.1,4.8-4.7,6c-2.1-0.4-4.2-0.9-4.8-3.4
		c0.5,0,0.9-0.1,1.4-0.1C617.1,67.5,618.6,64.3,620.2,61.7z"/>
	<path id="XMLID_54_" class="st3" d="M748.4,86.4c0.4-0.7,1.3-1.3,1.7-0.6c0.5,0.9-0.7,0.8-1.3,1.1
		C748.7,86.8,748.6,86.6,748.4,86.4z"/>
	<path id="XMLID_52_" class="st10" d="M564.7,511.3c-0.7-17.8-1.1-35.6-2.4-53.3c-0.6-8.3,1.1-16.9-2.1-25c2.7-1.9,0.1-4.2,0.2-6.2
		c0.9-13.6-0.9-27.2-1.2-40.8c-0.4-25.5-2.7-51-2.6-76.6c0-4.1-1.6-8.1-1.1-12.2c23.9-0.4,47.7-0.8,71.6-1.2
		c-1.6,38.8-6.4,77.3-10.6,115.8c0,2.7-0.4,5.3-0.7,8c-1.2,13.1-3.9,26.1-4.2,39.3c0,0.4,0,0.7,0,1.1c-3.3,10.3-3,21.1-4.9,31.5
		c-1.1,6.5-1.8,13.1-2.7,19.6C590.9,511.3,577.8,511.3,564.7,511.3z"/>
	<path id="XMLID_51_" class="st15" d="M723.4,353.3c16.7,1.8,33.4,1.1,50.1,0.5c2.5-0.1,4.9-0.3,7.4-0.4c3.4,21.3,1.4,42.7,0.6,64
		c-0.1,2.7-0.3,5.3-0.4,8c-1.7,4.6-3.5,9.2-5,13.8c-1.9,5.5-6.4,5.4-10.6,4.7c-4.7-0.8-4.3-4.5-3.3-8.1c0.5-2,0.8-4,1.2-6
		c5.3-16.3-1.3-31.2-5.4-46.3c0.6,14.1-1.6,28-1.4,42c-2,4.7-4.6,9.1-7.9,13c-4.6,5.3-8.2,5.6-13.7,1.6c5.1-9.9,5.5-20.3,2.2-30.8
		C731.3,390.9,727.1,372.2,723.4,353.3z"/>
	<path id="XMLID_187_" class="st1" d="M763.3,429.8c-0.4,2-0.6,4-1.2,6c-1,3.7-1.4,7.3,3.3,8.1c4.2,0.7,8.7,0.8,10.6-4.7
		c1.6-4.6,3.4-9.2,5-13.8c7.6,3.5,7.9,4.3,4.5,11.3c-5,10.2-9.9,20.4-14.8,30.7c-2.1,4.3-5.3,7.3-9.7,9.1c-5.7,2.3-8.9,0.2-8.8-5.9
		c0.2-7.6,3.2-14.5,5.3-21.6c0.4-1.3,0.7-2.7,1.1-4.4c-3.5-0.1-4.5,2.5-5.9,4.2c-7.7,8.7-16.6,15.6-27.8,18.9
		c-3.3,1-7.3,2.6-9.6-1.1c-2.2-3.4,0.1-6.7,2.2-9.7c4.7-6.7,10.9-11.9,17.3-16.8c5.4,4,9.1,3.7,13.7-1.6c3.4-3.9,5.9-8.3,7.9-13
		C758.7,426.9,761,428.3,763.3,429.8z M759.7,443.3c-0.2-0.5-0.3-0.8-0.4-1.1c-0.4,0.3-0.8,0.5-1,0.9c-0.1,0.2,0.1,0.6,0.2,0.9
		C758.9,443.7,759.3,443.5,759.7,443.3z"/>
	<path id="XMLID_48_" class="st1" d="M644.3,445.7c5.2,1.1,10.7,0.1,15.7,2.1c0,3.1,0,6.2-0.1,9.3c-0.5,18.6-0.9,37.3-7.9,55
		c-7.5,0.4-11.7-3.5-9.8-10.9c2.9-10.8,0.8-20.4-3.9-29.9C643.8,463.5,643.3,454.4,644.3,445.7z"/>
	<path id="XMLID_47_" class="st1" d="M564.7,511.3c13.1,0,26.2,0,39.3,0c2.2,1.9,5.6,3.1,4.4,7.1c-1.6,5.6-6.6,3.6-10.3,4.3
		c-8.4,0-16.7,0-25.1,0c-1.2-0.1-2.4-0.2-3.6-0.2c-3.3,0-6.6,0.4-8.2-3.5C559.7,515.1,562.9,513.5,564.7,511.3z"/>
	<path id="XMLID_46_" class="st9" d="M611.7,459c0.3-13.2,3-26.2,4.2-39.3c0.2-2.7,0.6-5.3,0.7-8c5.8,7,11.7,14,17.5,21
		c-3.3,4.4-6.3,9.1-10.1,13C619.7,450.1,617.6,456.3,611.7,459z"/>
	<path id="XMLID_45_" class="st1" d="M611.7,459c5.9-2.7,8-8.9,12.2-13.2c3.8-3.9,6.8-8.7,10.1-13c7.7,2.6,8.4,3.6,6,9.9
		c-1.9,0.9-2.2,3-3.5,4.5c-3.4,3-6,6.7-8.6,10.4c-1.3,1.5-2.7,3.1-4,4.6c-2,2.3-3.6,5.1-7.5,4.4c-3.6-0.7-3.8-3.9-4.8-6.5
		C611.6,459.7,611.7,459.3,611.7,459z"/>
	<path id="XMLID_44_" class="st12" d="M852,396.8c2.6,0.7,5.1,1.4,7.7,2c10.7,2.6,10.6,2.6,12.3,13.6c0.6,3.6,1.3,7.2,0.9,11.3
		c-7.2-5-14.1-9.8-21-14.5C851.9,405,851.9,400.9,852,396.8z"/>
	<path id="XMLID_43_" class="st12" d="M852,433.4c6.7,2.5,13.4,5.4,20.9,4.5c2.2-0.3,2.7,0.9,3,2.8c0.8,4.3,1.2,8.5,0.9,13.8
		c-8.2-5.8-16.4-10.2-24.8-14.4C852,437.9,852,435.6,852,433.4z"/>
	<path id="XMLID_42_" class="st16" d="M652.1,512c6.9-17.7,7.4-36.3,7.9-55c0.1-3.1,0.1-6.2,0.1-9.3c2.6-0.3,3.8,0.7,3.8,3.5
		c-0.4,18.5-0.8,36.9-5,55C658.1,509.7,656.3,512.3,652.1,512z"/>
	<path id="XMLID_41_" class="st12" d="M636.6,447.1c1.2-1.4,1.5-3.6,3.5-4.5c1.4,1,2.9,2,4.3,3c-1,8.8-0.6,17.8-5.8,25.6
		c-4.1-2.7-6-6.5-5.8-11.3C635,456,636.3,451.7,636.6,447.1z"/>
	<path id="XMLID_40_" class="st17" d="M600.6,539.1c-5.9-0.2-11.7-0.5-17.6-0.7c-0.9-2.6-2.1-3-3.9-0.7c-2.8,0.1-5.3-0.9-7.5-2.6
		c1-2,1.7-4.2,3.9-5.3c6.9,0,13.8,0,20.8,0C598.9,532.3,600.3,535.5,600.6,539.1z"/>
	<path id="XMLID_39_" class="st12" d="M851.9,368c1.2,0.4,2.4,1.2,3.5,1.1c9.6-1.1,10.4,5.7,11.4,12.4c0.3,2,1.4,3.9,0.7,6.5
		c-5.4-3.6-10.7-7.2-16-10.7C851.7,374.1,851.8,371,851.9,368z"/>
	<path id="XMLID_38_" class="st13" d="M596.4,529.7c-6.9,0-13.8,0-20.8,0c-0.9-2.3-1.7-4.7-2.6-7c8.4,0,16.7,0,25.1,0
		C597.6,525,597,527.4,596.4,529.7z"/>
	<path id="XMLID_37_" class="st12" d="M878.2,468.7c-8.7,0-17.5,0-26.2,0c0-1.6,0-3.2,0-4.7c7.8,0.9,15.6,2.2,23.5,0.8
		C879.3,464.1,877.9,467,878.2,468.7z"/>
	<path id="XMLID_36_" class="st13" d="M636.6,447.1c-0.3,4.6-1.6,8.9-3.9,12.8c-1.6-0.8-3.2-1.6-4.7-2.4
		C630.6,453.8,633.1,450.1,636.6,447.1z"/>
	<path id="XMLID_35_" class="st7" d="M853,344.5c1.4,3.2,2.8,6.4,4.2,9.6c-0.3,0.3-0.6,0.5-0.8,0.8c-2.1-1.1-4.1-2.3-5.5-4.4
		C853,349,850.8,346,853,344.5z"/>
	<path id="XMLID_34_" class="st16" d="M601.4,550c0-0.5,0.1-1,0.1-1.6C601.5,549,601.4,549.5,601.4,550z"/>
	<path id="XMLID_33_" class="st10" d="M179,525c-10.9,0.1-21.7,0.2-32.6,0.3c-1.5,0-2.8-0.5-3.9-1.4c-1.3-12.1,1.7-24.1,0.9-36.1
		c10.4,0,20.8,0,31.2,0c0,6.4-0.4,12.7,0,19.1C175,513.1,175,519.6,179,525z"/>
	<path id="XMLID_32_" class="st6" d="M104.8,281.5c19.4-2.6,38.7-4.5,58.2-2c5.9,0.8,10.2,4.9,10.2,10.5c0.2,30.2,4,60.4,2.2,90.7
		c-0.7,11.3-0.6,22.7-3.9,34c-0.6-4.9-1.5-9.8-1.7-14.7c-0.9-18.6-2.1-37.3-1.2-55.9c0.8-16.3,2.4-32.6,2.3-49
		c-0.1-9.9-2.4-11.5-12.4-10.9C140.5,285.3,122.6,284.5,104.8,281.5z"/>
	<path id="XMLID_31_" class="st6" d="M109.4,447.3c-4.9,0.5-9.8,1.1-14.8,1.3c-6.7,0.3-11.8-4-12.3-10.5c-1.3-17.3-2.4-34.7,0-52
		c0.3-2.5,0.5-4.9,2.1-7.4c1.9,5.6,2.7,11.1,2.8,16.6c0.2,13.2,0.6,26.5-0.9,39.7c-0.8,6.7,2.3,9.8,9.2,10.3
		c4.7,0.3,9.4,0.9,14.1,1.3C109.5,446.9,109.4,447.1,109.4,447.3z"/>
	<path id="XMLID_30_" class="st17" d="M894.9,407.5c-0.5,0.1-0.9,0.1-1.4,0.2c0.1-0.5,0.3-0.9,0.4-1.4
		C894.2,406.7,894.6,407.1,894.9,407.5z"/>
	<path id="XMLID_29_" class="st7" d="M857.2,354.1c0.2,0.4,0.3,0.8,0.5,1.3c-0.4-0.1-0.9-0.3-1.3-0.4
		C856.6,354.6,856.9,354.3,857.2,354.1z"/>
	<path id="XMLID_28_" class="st17" d="M925.6,350.8c-0.3,0.3-0.7,0.8-0.8,0.7c-0.8-0.4-0.4-1-0.1-1.5
		C925,350.2,925.3,350.5,925.6,350.8z"/>
	<path id="XMLID_27_" class="st6" d="M786.2,183.5c-0.4-2.4-0.7-4.8,0-7.2c0.4,0.1,0.8,0.1,1.2,0.2c11.7,1.5,12,1.2,12.2-11.2
		c0.1-7.2-2-14.3-1.4-21.6c0.3-3.9,0.7-7.8,2.5-12.5c3.7,5.9,3.9,12.2,3.2,17.4c-1.4,10.4-2.6,20.4,0.1,30.7
		c0.9,3.4-1.2,4.5-4.1,4.5C795.3,183.8,790.8,183.6,786.2,183.5z"/>
	<path id="XMLID_26_" class="st11" d="M726,157.5c-1.1,0.4-2.3,0.7-3.4,1.1c-0.3-7.1,2.1-13.6,5.3-19.9
		C728.9,145.1,726.2,151.2,726,157.5z"/>
	<path id="XMLID_25_" class="st17" d="M744.9,194.2c0.4,3.5-2.3,5.3-5.9,5.6c-4.2,0.3-6.5-2.3-6.6-6.5c-0.1-4.5,3.1-6.5,6.7-6.7
		C743.1,186.4,744.7,189.5,744.9,194.2z"/>
	<path id="XMLID_24_" class="st2" d="M553.9,151.3c-6.4,0-12.9,0-19.3,0c-2.4,0-5-0.1-4.9-3.3c0.1-2.6,2.2-4.1,4.7-4.1
		c13.1-0.1,26.1-0.1,39.2,0.1c2.3,0,4.6,1.1,4.2,4.2c-0.3,2.7-2.4,3.1-4.6,3.1C566.7,151.3,560.3,151.3,553.9,151.3z"/>
	<path id="XMLID_23_" class="st2" d="M553.7,216.1c6.2,0,12.4,0,18.7,0c2.6,0,5.3,0,5.4,3.5c0.1,3.1-2.5,3.8-4.7,3.8
		c-12.9,0.1-25.7,0.1-38.6,0c-2.7,0-5-1.6-4.8-4.6c0.3-3.1,3.1-2.8,5.4-2.8C541.3,216.1,547.5,216.1,553.7,216.1z"/>
	<path id="XMLID_22_" class="st2" d="M549.5,202.4c5,0,10,0,14.9,0c2.5,0,4.7,0.6,4.7,3.6c0.1,3-1.9,3.8-4.5,3.8
		c-10,0-19.9,0.1-29.9-0.1c-2.5,0-5.3-0.6-5.2-4c0.2-3.5,3-3.3,5.6-3.3C539.9,202.4,544.7,202.4,549.5,202.4z"/>
	<path id="XMLID_21_" class="st2" d="M549.9,158.8c5,0,10,0,14.9,0c2.3,0,4.1,0.8,4.3,3.4c0.2,2.8-2,3.8-4,3.8
		c-10.4,0.2-20.7,0.2-31.1,0.1c-2.5,0-4.5-1.7-4.3-4.4c0.1-2.7,2.5-2.9,4.7-2.9C539.5,158.8,544.7,158.8,549.9,158.8z"/>
	<path id="XMLID_20_" class="st2" d="M541.7,173.8c2.7,0,5.3,0,8,0c2.3,0,3.4,1,3.3,3.4c-0.1,2.1-1.3,2.8-3.2,2.8
		c-5.5,0-11.1,0-16.6,0c-2.1,0-3.7-1-3.5-3.3c0.1-2,1.6-2.8,3.4-2.8C536,173.7,538.8,173.8,541.7,173.8z"/>
	<path id="XMLID_19_" class="st14" d="M623.9,195c-1.2-1.6-2.4-3.2-3.7-4.8c-1.3-9.6-3.8-19-1.6-28.9
		C622.1,172.3,624.2,183.5,623.9,195z"/>
	<path id="XMLID_18_" class="st14" d="M632.8,196.8c8.8,0.4,18-0.5,25,6.5c1.2,1.1,3,2.6,1.9,4.1c-1.5,2.2-2.9-0.2-4-1
		C648.9,201.3,640.6,199.7,632.8,196.8z"/>
	<path id="XMLID_17_" class="st14" d="M658.9,194.9c-8-4.1-16.5-3.8-26.1-1.9C641.2,184.5,654.9,186.1,658.9,194.9L658.9,194.9z"/>
	<path id="XMLID_16_" class="st14" d="M658.9,194.9c0.2,0.2,0.3,0.3,0.5,0.5c-0.1,0-0.3,0-0.3-0.1C659,195.3,659,195.1,658.9,194.9
		L658.9,194.9z"/>
	<path id="XMLID_15_" class="st4" d="M226.6,364.6c3.4,2,6.8,3.9,10.3,5.9c3.1,5.5,3.3,11-0.4,16.4c-5.2,2.1-10.6,0.8-15.8,1
		c-9.2,0.2-18.5,0-27.7,0c-0.2-1.4-0.6-2.8-0.6-4.2c0-29.8,0-59.6,0-89.3c0-1.6-0.3-3.3,0.8-4.8c6.7,1,10.6,5.6,14.1,10.9
		c5.9,8.9,5.7,19,6.1,29c0,4.6,0,9.1,0,13.7c-0.1,7-0.2,14-0.4,21c-0.1,3.3,0.7,4.5,4.3,3.1C220.2,366,223.5,365.5,226.6,364.6z"/>
	<path id="XMLID_14_" class="st1" d="M530.2,385.6c-10.6-5.2-15.8-15.5-12.7-25.4c4.7-15.2,13.1-28.7,20-42.9c0.5,0.2,1,0.4,1.6,0.6
		c-2,4.7-3.9,9.4-5.9,14c-3.5,8.1-6.7,16.3-9.5,24.8c-2.9,9-2.3,17,3.6,24.4C528,382.1,528.6,383.2,530.2,385.6z"/>
	<path id="XMLID_13_" class="st12" d="M213.3,329.4c-0.5-10-0.3-20.1-6.1-29c-3.5-5.3-7.3-9.9-14.1-10.9c-0.1-2.7-0.5-5.3-0.3-8
		c0.4-6.9-2.4-11.5-9.3-13.2c0-0.3,0-0.6,0-0.9c4.1-4.2,4.4-9.6,4.7-15.1c1.3-3.9-0.2-7.6-1.1-11.3c-0.7-2.8-2.9-6-1.4-8.3
		c5.1-7.4,1.2-13.6-1.7-20.1c0.8-1.4,1.7-2.7,2.5-4.1c33,0.1,66,0.3,99,0c6.1,0,7.5,1.8,7.5,7.7c-0.3,35.3-0.2,70.5,0,105.8
		c0,5.6-1.5,7.6-7.4,7.6C261.4,329.3,237.4,329.4,213.3,329.4z"/>
	<path id="XMLID_12_" class="st15" d="M183.5,267.4c0,0.3,0,0.6,0,0.9c-6.4,0-12.9,0-19.3,0c2.8-5.3,6.4-10.1,8.4-15.9
		c0.9-2.5,1-4.2-1.8-6.1c-5.6-3.9-6.9-10.1-6.4-16.6c0.3-3.5,2.2-6,5.8-6.2c4.3-0.3,4.2,3.3,4.4,6.1c0.7,8.8,0.8,17.7,2.3,26.5
		C177.8,260.8,179,265,183.5,267.4z"/>
	<path id="XMLID_11_" class="st12" d="M113.5,268.3c0-7.2,0-14.5,0-21.7c0-2-0.6-4.2,1.4-5.7c3.4,6.2,7.1,12,12.2,17
		c2.9,2.8,4.4,6.5,5.2,10.4C126.1,268.3,119.8,268.3,113.5,268.3z"/>
	<path id="XMLID_10_" class="st13" d="M184,212.6c2.9,6.5,6.7,12.7,1.7,20.1c-1.6,2.3,0.7,5.5,1.4,8.3c1,3.7,2.4,7.4,1.1,11.3
		c-8.3-4.6-8.7-13.3-10.9-21.1C175.1,223.5,179.3,217.9,184,212.6z"/>
	<path id="XMLID_9_" class="st2" d="M605.2,59.9c0.6,0.2,1.1,0.4,1.7,0.6c-0.8,8.1-2.5,9.5-11.4,10.2c-2.4-0.6-4.6-1.6-5.8-4
		c-1.4-2.8-1.2-4.5,2.5-4.9c4-0.4,8-1.2,12-1.8c0,0,0.5,0.1,0.5,0.1L605.2,59.9z"/>
	<path id="XMLID_8_" class="st8" d="M595.4,70.7c8.9-0.7,10.6-2.2,11.4-10.2c0.3-0.1,0.7-0.1,1-0.1c0,0,0.1,0.1,0.1,0.1
		c0,1,0.2,1.9,1.2,2.5c-2.7,8-5.3,9.8-13.6,9.4C595.4,71.8,595.4,71.3,595.4,70.7z"/>
	<path id="XMLID_7_" class="st8" d="M610.1,56.4c1.3,2.2,3.5,1.3,5.3,1.6c-0.9,0.4-1.8,0.8-2.7,1.1c-1.6,0.4-3.2,0.9-4.8,1.3
		c0,0-0.1-0.1-0.1-0.1c0.5-1.3,0.9-2.6,1.4-3.8C609.5,56.5,609.8,56.4,610.1,56.4z"/>
	<path id="XMLID_6_" class="st8" d="M605.2,59.9l-0.4,0.3c0,0-0.5-0.1-0.5-0.1C604.5,59.5,604.8,59.4,605.2,59.9z"/>
	<path id="XMLID_5_" class="st1" d="M607.9,60.5c1.6-0.4,3.2-0.9,4.8-1.3c0.2,1.6,0.4,3.3,0.6,4.9c-0.5,0-0.9,0.1-1.4,0.1
		c-0.6-1.2-1.6-1.5-2.8-1.2C608.1,62.4,607.9,61.5,607.9,60.5z"/>
	<path id="XMLID_4_" class="st17" d="M579.2,537.6c1.8-2.3,3-1.8,3.9,0.7C581.6,538.6,580.2,539,579.2,537.6z"/>
	<path id="XMLID_3_" class="st7" d="M613.3,64.1c-0.2-1.6-0.4-3.3-0.6-4.9c0.9-0.4,1.8-0.8,2.7-1.1c2.9-0.5,5.8-0.9,4.9,3.7
		C618.6,64.3,617.1,67.5,613.3,64.1z"/>
	<path id="XMLID_2_" class="st2" d="M763.3,429.8c-2.3-1.4-4.6-2.9-6.9-4.3c-0.2-14,2-27.9,1.4-42
		C762,398.6,768.6,413.5,763.3,429.8z"/>
	<path id="XMLID_1_" class="st2" d="M759.7,443.3c-0.4,0.2-0.8,0.4-1.2,0.6c-0.1-0.3-0.4-0.7-0.2-0.9c0.2-0.4,0.7-0.6,1-0.9
		C759.4,442.5,759.5,442.8,759.7,443.3z"/>
</g>
</svg>
