<?xml version="1.0" encoding="utf-8"?>
<!-- Generator: Adobe Illustrator 21.1.0, SVG Export Plug-In . SVG Version: 6.00 Build 0)  -->
<svg version="1.1" id="Layer_1" xmlns="http://www.w3.org/2000/svg" xmlns:xlink="http://www.w3.org/1999/xlink" x="0px" y="0px"
	 viewBox="0 0 841.5 399.2" style="enable-background:new 0 0 841.5 399.2;" xml:space="preserve">
<style type="text/css">
	.st0{fill:url(#SVGID_1_);}
	.st1{fill:#E669C3;}
	.st2{fill:url(#SVGID_2_);}
	.st3{fill:url(#SVGID_3_);}
	.st4{fill:url(#SVGID_4_);}
	.st5{fill:url(#SVGID_5_);}
	.st6{fill:url(#SVGID_6_);}
	.st7{fill:url(#SVGID_7_);}
	.st8{fill:url(#SVGID_8_);}
	.st9{fill:url(#SVGID_9_);}
	.st10{fill:url(#SVGID_10_);}
	.st11{fill:url(#SVGID_11_);}
	.st12{fill:url(#SVGID_12_);}
	.st13{fill:url(#SVGID_13_);}
	.st14{fill:url(#SVGID_14_);}
	.st15{fill:#10A9FD;}
	.st16{fill:url(#SVGID_15_);}
</style>
<linearGradient id="SVGID_1_" gradientUnits="userSpaceOnUse" x1="376.3427" y1="582.4213" x2="376.3427" y2="49.8714" gradientTransform="matrix(-0.4782 -0.4782 0.7071 -0.7071 246.3346 609.7056)">
	<stop  offset="0" style="stop-color:#CE47E1;stop-opacity:0.4"/>
	<stop  offset="0.2137" style="stop-color:#D149D8;stop-opacity:0.5282"/>
	<stop  offset="0.5637" style="stop-color:#D950BF;stop-opacity:0.7382"/>
	<stop  offset="1" style="stop-color:#E65A98"/>
</linearGradient>
<path class="st0" d="M111.5,365.1c8-8,371.4-362.6,376.8-357.2C493.8,13.2,139,376.6,131,384.6c-8,8-18.8,10.1-24.2,4.7
	C101.5,383.9,103.6,373,111.5,365.1z"/>
<polygon class="st1" points="50.9,0 69,32.9 101.9,50.9 69,68.9 50.9,101.9 32.9,68.9 0,50.9 32.9,32.9 "/>
<g>
	<g>
		<linearGradient id="SVGID_2_" gradientUnits="userSpaceOnUse" x1="723.314" y1="294.3076" x2="810.3389" y2="381.3326">
			<stop  offset="4.146340e-02" style="stop-color:#FCEE21;stop-opacity:0.3"/>
			<stop  offset="0.6133" style="stop-color:#FBB03B;stop-opacity:0.2"/>
			<stop  offset="0.7473" style="stop-color:#BD8C31;stop-opacity:0.1653"/>
			<stop  offset="0.8617" style="stop-color:#8F712A;stop-opacity:0.1358"/>
			<stop  offset="0.9494" style="stop-color:#736026;stop-opacity:0.1131"/>
			<stop  offset="1" style="stop-color:#685A24;stop-opacity:0.1"/>
		</linearGradient>
		<circle class="st2" cx="764.6" cy="335.6" r="60.6"/>
		
			<linearGradient id="SVGID_3_" gradientUnits="userSpaceOnUse" x1="767.357" y1="213.3454" x2="767.357" y2="82.212" gradientTransform="matrix(0.7798 -0.6261 0.6261 0.7798 81.2963 711.2872)">
			<stop  offset="4.146340e-02" style="stop-color:#FCEE21"/>
			<stop  offset="0.6133" style="stop-color:#FBB03B"/>
			<stop  offset="0.6193" style="stop-color:#FBAE3B"/>
			<stop  offset="0.791" style="stop-color:#F6812E"/>
			<stop  offset="0.9235" style="stop-color:#F26527"/>
			<stop  offset="1" style="stop-color:#F15A24"/>
		</linearGradient>
		<path class="st3" d="M812.2,389.8c0.9,3.1,1.8,6.2,2.6,9.4c-51.5-26.7-79.3-56.6-93-75.5c-1.7-2.4-3.3-4.6-4.6-6.6
			c-2-3.1-3.5-5.7-4.6-7.7c-1.6-3-2.3-4.6-2.3-4.6l0.5,0.7l11.2-9.4l12.7-10.6l6.9-5.8l3.5-2.9c0,0,1.5,1,4,3.2
			c1.7,1.5,4,3.5,6.6,6.2c1.9,1.9,4,4.1,6.2,6.7C776.5,309.5,797.5,340.1,812.2,389.8z"/>
		
			<linearGradient id="SVGID_4_" gradientUnits="userSpaceOnUse" x1="669.0527" y1="243.5402" x2="669.0527" y2="184.062" gradientTransform="matrix(0.907 -0.4212 0.4212 0.907 36.0695 425.3528)">
			<stop  offset="4.146340e-02" style="stop-color:#FCEE21"/>
			<stop  offset="0.6133" style="stop-color:#FBB03B"/>
			<stop  offset="0.6193" style="stop-color:#FBAE3B"/>
			<stop  offset="0.791" style="stop-color:#F6812E"/>
			<stop  offset="0.9235" style="stop-color:#F26527"/>
			<stop  offset="1" style="stop-color:#F15A24"/>
		</linearGradient>
		<path class="st4" d="M745.8,361.1c0.1,1.4,0.1,2.9,0.1,4.4c-19.8-17.4-28.8-33.5-32.8-43.3c-0.5-1.2-0.9-2.4-1.3-3.4
			c-0.6-1.6-0.9-2.9-1.2-3.9c-0.4-1.5-0.5-2.3-0.5-2.3l0.1,0.4l6-2.9l6.7-3.3l3.7-1.8l1.8-0.9c0,0,0.5,0.6,1.4,1.9
			c0.6,0.8,1.4,2,2.2,3.4c0.6,1,1.3,2.2,2,3.6C738.8,321.8,744.8,337.6,745.8,361.1z"/>
		
			<linearGradient id="SVGID_5_" gradientUnits="userSpaceOnUse" x1="846.4037" y1="97.3177" x2="846.4037" y2="37.8396" gradientTransform="matrix(0.6791 -0.7341 0.7341 0.6791 147.3387 880.6708)">
			<stop  offset="4.146340e-02" style="stop-color:#FCEE21"/>
			<stop  offset="0.6133" style="stop-color:#FBB03B"/>
			<stop  offset="0.6193" style="stop-color:#FBAE3B"/>
			<stop  offset="0.791" style="stop-color:#F6812E"/>
			<stop  offset="0.9235" style="stop-color:#F26527"/>
			<stop  offset="1" style="stop-color:#F15A24"/>
		</linearGradient>
		<path class="st5" d="M792.6,322.1c0.6,1.3,1.2,2.7,1.8,4c-24.9-8.5-39.4-20.1-46.8-27.7c-0.9-1-1.8-1.9-2.5-2.7
			c-1.1-1.3-2-2.3-2.6-3.2c-0.9-1.2-1.3-1.9-1.3-1.9l0.3,0.3l4.4-5l5-5.6l2.7-3l1.4-1.5c0,0,0.7,0.4,2,1.2c0.9,0.6,2,1.3,3.4,2.3
			c1,0.7,2.1,1.6,3.2,2.6C771.2,288.5,782.7,300.8,792.6,322.1z"/>
		
			<linearGradient id="SVGID_6_" gradientUnits="userSpaceOnUse" x1="817.6351" y1="42.2461" x2="873.0808" y2="42.2461" gradientTransform="matrix(0.7798 -0.6261 0.6261 0.7798 81.2963 711.2872)">
			<stop  offset="0" style="stop-color:#423AFB"/>
			<stop  offset="1" style="stop-color:#10A9FD"/>
		</linearGradient>
		<path class="st6" d="M841.2,272.3c1.1,2.1-1.4,4.1-3.2,2.6c-85.2-76.6-119.1-75.7-119.1-75.7l-0.1,0c-8.4-15.5-17-30.5-25.6-44.4
			l0.3-0.2C693.5,154.8,767.3,139.7,841.2,272.3z"/>
		
			<linearGradient id="SVGID_7_" gradientUnits="userSpaceOnUse" x1="735.9358" y1="76.7532" x2="800.1053" y2="76.7532" gradientTransform="matrix(0.7798 -0.6261 0.6261 0.7798 81.2963 711.2872)">
			<stop  offset="0" style="stop-color:#7C8589"/>
			<stop  offset="0.3732" style="stop-color:#9FA4A7"/>
			<stop  offset="0.6413" style="stop-color:#BFC1BF"/>
			<stop  offset="0.7066" style="stop-color:#9FA3A6"/>
		</linearGradient>
		<polygon class="st7" points="748.8,264.6 757.8,275.8 707.7,316 698.7,304.8 		"/>
		
			<linearGradient id="SVGID_8_" gradientUnits="userSpaceOnUse" x1="731.8236" y1="62.477" x2="804.2135" y2="62.477" gradientTransform="matrix(0.7798 -0.6261 0.6261 0.7798 81.2963 711.2872)">
			<stop  offset="0.2934" style="stop-color:#9FA3A6"/>
			<stop  offset="0.3587" style="stop-color:#BFC1BF"/>
			<stop  offset="0.6268" style="stop-color:#9FA4A7"/>
			<stop  offset="1" style="stop-color:#7C8589"/>
		</linearGradient>
		<polygon class="st8" points="743.1,251 752,262 695.5,307.3 686.7,296.3 		"/>
		
			<linearGradient id="SVGID_9_" gradientUnits="userSpaceOnUse" x1="662.9527" y1="42.2508" x2="718.3948" y2="42.2508" gradientTransform="matrix(0.7798 -0.6261 0.6261 0.7798 81.2963 711.2872)">
			<stop  offset="0" style="stop-color:#423AFB"/>
			<stop  offset="1" style="stop-color:#10A9FD"/>
		</linearGradient>
		<path class="st9" d="M603.4,227.1c0,0-30.6,68.8,82.9,169.6c1.8,1.6,4.3-0.5,3.2-2.6c-56.4-99.7-48.2-132.6-48.2-132.6l0.1-0.1
			c-13.3-11.6-26.1-23.2-37.8-34.5L603.4,227.1z"/>
		
			<linearGradient id="SVGID_10_" gradientUnits="userSpaceOnUse" x1="710.3763" y1="1.7214" x2="825.6337" y2="1.7214" gradientTransform="matrix(0.7798 -0.6261 0.6261 0.7798 81.2963 711.2872)">
			<stop  offset="0" style="stop-color:#423AFB"/>
			<stop  offset="1" style="stop-color:#10A9FD"/>
		</linearGradient>
		<path class="st10" d="M692.6,153.8c0.2,0.3,0.4,0.7,0.7,1.1c8.6,13.9,17.1,28.9,25.6,44.4c8.9,16.4,17.6,33.4,26,50.3l-59.8,48
			c-14.7-11.8-29.4-24-43.5-36.2c-13.3-11.6-26.1-23.2-37.8-34.5c-0.3-0.3-0.6-0.6-0.9-0.9L692.6,153.8z"/>
		
			<linearGradient id="SVGID_11_" gradientUnits="userSpaceOnUse" x1="706.7438" y1="-111.0383" x2="829.2837" y2="-111.0383" gradientTransform="matrix(0.7798 -0.6261 0.6261 0.7798 81.2963 711.2872)">
			<stop  offset="0" style="stop-color:#F9FBFC"/>
			<stop  offset="1" style="stop-color:#D1D3D4"/>
		</linearGradient>
		<path class="st11" d="M662.8,110.9c9.7,12.1,19.8,26.8,29.8,43L602.7,226c-13.6-13.3-25.8-26.3-35.5-38.4
			c-14.7-18.3-26.3-37.3-35.6-56L615.8,64C632,77.1,648.1,92.6,662.8,110.9z"/>
		
			<linearGradient id="SVGID_12_" gradientUnits="userSpaceOnUse" x1="714.0419" y1="-207.1157" x2="821.9819" y2="-207.1157" gradientTransform="matrix(0.7798 -0.6261 0.6261 0.7798 81.2963 711.2872)">
			<stop  offset="0" style="stop-color:#423AFB"/>
			<stop  offset="1" style="stop-color:#10A9FD"/>
		</linearGradient>
		<path class="st12" d="M615.8,64l-84.2,67.6c-13.1-26.3-21.4-51.9-26.6-73.5l44.8-36C569.7,31.9,592.9,45.6,615.8,64z"/>
		
			<linearGradient id="SVGID_13_" gradientUnits="userSpaceOnUse" x1="739.2721" y1="-269.2829" x2="796.748" y2="-269.2829" gradientTransform="matrix(0.7798 -0.6261 0.6261 0.7798 81.2963 711.2872)">
			<stop  offset="0" style="stop-color:#423AFB"/>
			<stop  offset="1" style="stop-color:#10A9FD"/>
		</linearGradient>
		<path class="st13" d="M549.8,22.1l-44.8,36c-6.9-28-8.7-49.3-9.1-56.5c0-0.3,0-0.5,0-0.7C502,2.6,522.9,8.8,549.8,22.1z"/>
		
			<linearGradient id="SVGID_14_" gradientUnits="userSpaceOnUse" x1="756.8362" y1="43.8019" x2="779.1934" y2="43.8019" gradientTransform="matrix(0.7798 -0.6261 0.6261 0.7798 81.2963 711.2872)">
			<stop  offset="0" style="stop-color:#423AFB"/>
			<stop  offset="1" style="stop-color:#10A9FD"/>
		</linearGradient>
		<path class="st14" d="M697,233.5c32.1,40,75.8,106.1,72.8,108.6c-2.9,2.3-58.1-54.6-90.3-94.6c-32.1-40-39-56.5-34.1-60.4
			C650.2,183.3,664.9,193.5,697,233.5z"/>
		<circle class="st15" cx="590.1" cy="115.4" r="41.6"/>
		<linearGradient id="SVGID_15_" gradientUnits="userSpaceOnUse" x1="558.0743" y1="115.3914" x2="622.2067" y2="115.3914">
			<stop  offset="0.7488" style="stop-color:#423AFB"/>
			<stop  offset="1" style="stop-color:#10A9FD"/>
		</linearGradient>
		<circle class="st16" cx="590.1" cy="115.4" r="32.1"/>
	</g>
</g>
</svg>
