<?xml version="1.0" encoding="utf-8"?>
<!-- Generator: Adobe Illustrator 19.0.0, SVG Export Plug-In . SVG Version: 6.00 Build 0)  -->
<svg version="1.1" id="Layer_1" xmlns="http://www.w3.org/2000/svg" xmlns:xlink="http://www.w3.org/1999/xlink" x="0px" y="0px"
	 viewBox="0 0 372.7 649.5" style="enable-background:new 0 0 372.7 649.5;" xml:space="preserve">
<style type="text/css">
	.st0{fill:#C69F92;}
	.st1{fill:url(#XMLID_213_);}
	.st2{fill:#909ACD;}
	.st3{fill:#2A3378;}
	.st4{fill:url(#XMLID_214_);}
	.st5{fill:#FEE7DA;}
	.st6{fill:#FCD4C7;}
	.st7{fill:url(#XMLID_215_);}
	.st8{fill:url(#XMLID_216_);}
	.st9{fill:#B2B7DD;}
	.st10{fill:#2D3E99;}
	.st11{fill:url(#XMLID_217_);}
	.st12{fill:url(#XMLID_219_);}
	.st13{fill:url(#XMLID_245_);}
	.st14{fill:#E2EBF3;}
</style>
<path id="XMLID_202_" class="st0" d="M129,367.2c2.3-5.3,6.7-9.8,12.1-14.9c6-5.8,30.2-5.3,42.6-9.7c18-6.4,55.3-34.2,62.5-39.2
	c0.8-0.6,1.8-0.9,2.8-0.8l18.8,1.2c3.5,0.2,5.4,4.1,3.4,7c-3.3,4.8-8.2,11.1-13.5,14.9c-9.3,6.7-77.4,32.3-86,35.6
	c-8.5,3.3-16.1,3.6-22.9,9.8c-2.9,2.6-7.1,4.1-10,5.4c-3.4,1.6-6,1.7-7.4,1.6c-1-0.1-1.9,0.2-2.8,0.6
	C123.1,382,126.9,372.1,129,367.2z"/>
<linearGradient id="XMLID_213_" gradientUnits="userSpaceOnUse" x1="78.6276" y1="243.2053" x2="132.1228" y2="243.2053" gradientTransform="matrix(-1 0 0 1 372.7228 0)">
	<stop  offset="0" style="stop-color:#84489C"/>
	<stop  offset="1" style="stop-color:#483292"/>
</linearGradient>
<path id="XMLID_201_" class="st1" d="M292,225c1.1-11.9,4.6-27.3-1.2-41.8c-6.2-15.2-16.2-15.8-23.5-11.3
	c-7.3,4.5-9.9,9.9-10.5,14.8c-0.9,7-0.4,9.8-0.4,16.9c0.1,9.1,1.2,18.1,1.4,27.1c0.2,9.4-0.5,18.7-1.6,28c-0.2,1.5-0.3,3-0.5,4.5
	c-0.7,5.5-1.5,11-3,16.4c-1.5,5.5-3.9,10.8-6.8,15.6c-0.6,0.9-7.9,12.2-4.4,11.6c4.1-0.7,18,15,29.3,8.4
	C285.9,306.4,291.1,235.1,292,225z"/>
<g id="XMLID_284_">
	<path id="XMLID_186_" class="st2" d="M169.2,609.9l16.1-3.6c0.1,0,0.2-0.2,0.2-0.3l-2.9-13.2c0-0.1-0.2-0.2-0.3-0.2l-16.1,3.6
		c-0.1,0-0.2,0.2-0.2,0.3l2.9,13.2C168.9,609.8,169,609.9,169.2,609.9z"/>
	<path id="XMLID_200_" class="st3" d="M188.1,603.8c0,0-2.9,21.7-6.1,23.6c-3.2,1.9-19.1-2.2-27.3-7c-8.2-4.8-16-2.1-32.5-6.4
		c-8.9-2.3-15.7-6.2-15.7-6.2s-2.1-10,13.8-8.6c15.9,1.4,34.7-0.5,38.6-2.9C162.9,593.9,170.2,602.6,188.1,603.8z"/>
</g>
<linearGradient id="XMLID_214_" gradientUnits="userSpaceOnUse" x1="100.4917" y1="93.8343" x2="180.9449" y2="93.8343" gradientTransform="matrix(-1 0 0 1 372.7228 0)">
	<stop  offset="0" style="stop-color:#84489C"/>
	<stop  offset="1" style="stop-color:#483292"/>
</linearGradient>
<path id="XMLID_199_" class="st4" d="M219,20.4c0,0-25.7,14.6-27.2,23.9c-1.2,7.7,11,80,12.9,113.2c0.4,7.4,8,12.2,14.8,9.3
	c16.4-6.9,41.4-20.4,50.1-41.3C282.9,93.6,241.6,13.7,219,20.4z"/>
<path id="XMLID_198_" class="st5" d="M302.6,122.1c-8.4,12.4-29.5,33.5-51.2,27.6c-21.7-5.9-57.1-35.4-49.2-82.7s43.3-53.2,67-41.4
	S332.2,78.8,302.6,122.1z"/>
<path id="XMLID_197_" class="st6" d="M286.7,97.8c5.9-9.8,25.6-19.7,31.5-13.8c5.9,5.9,2,35.4-23.6,29.5"/>
<linearGradient id="XMLID_215_" gradientUnits="userSpaceOnUse" x1="8.697889e-007" y1="285.584" x2="126.2159" y2="285.584" gradientTransform="matrix(-1 0 0 1 372.7228 0)">
	<stop  offset="0" style="stop-color:#84489C"/>
	<stop  offset="1" style="stop-color:#483292"/>
</linearGradient>
<path id="XMLID_196_" class="st7" d="M246.6,236.1c0-24-1.6-47.2,8-61.3c10.2-15,53.7-29.2,72.3-8.5
	c13.6,15.2,56.5,127.5,43.3,192.5c-13.1,65-25.5,55.9-93.5,56.5c-38,0.4-2.1-61.9-4.7-95.9C268.3,268.6,246.6,258.7,246.6,236.1z"/>
<path id="XMLID_195_" class="st5" d="M295.9,129.5c0,0-1.7,18.6,8.2,26c9.8,7.4-25.4,28.7-34.3,25.7c-8.9-3,11.3-26.1-6.4-45.8"/>
<linearGradient id="XMLID_216_" gradientUnits="userSpaceOnUse" x1="40.2017" y1="81.4954" x2="168.6978" y2="81.4954" gradientTransform="matrix(-1 0 0 1 372.7228 0)">
	<stop  offset="0" style="stop-color:#84489C"/>
	<stop  offset="1" style="stop-color:#483292"/>
</linearGradient>
<path id="XMLID_194_" class="st8" d="M204.2,50.7c1.5,23,36.9,7.4,46.8,43.8c5.6,20.9,6.9,43.3,6.9,58.7c0,7.9,9,12.5,15.4,7.8
	c13.7-10,33.1-25.3,45.7-40c20.8-24.3,14.3-51.2,3.4-78.3C311.5,15.8,297.9,0.4,271.1,0C243.6-0.4,201.2,4,204.2,50.7z"/>
<g id="XMLID_254_">
	<g id="XMLID_328_">
		<path id="XMLID_331_" class="st9" d="M192.7,609.8l14.7-8.1c0.1-0.1,0.2-0.2,0.1-0.4l-6.6-12c-0.1-0.1-0.2-0.2-0.4-0.1l-14.7,8.1
			c-0.1,0.1-0.2,0.2-0.1,0.4l6.6,12C192.4,609.9,192.6,609.9,192.7,609.8z"/>
		<g id="XMLID_329_">
			<path id="XMLID_330_" class="st10" d="M208.9,597.1c0,0,12.3,17,11.3,20.4c-1,3.4-14.8,11-23.7,13.1
				c-8.9,2.1-14.4,18.9-30.7,18.9c-20.9,0-18.8-1.3-18.8-1.3s-3.8-6.5,14.7-12.3c14.8-4.7,20.7-20.6,21.9-24.9
				C184.8,606.8,195.7,608,208.9,597.1z"/>
		</g>
	</g>
</g>
<linearGradient id="XMLID_217_" gradientUnits="userSpaceOnUse" x1="22.0085" y1="480.632" x2="296.4125" y2="480.632" gradientTransform="matrix(-1 0 0 1 372.7228 0)">
	<stop  offset="0" style="stop-color:#84489C"/>
	<stop  offset="1" style="stop-color:#483292"/>
</linearGradient>
<path id="XMLID_192_" class="st11" d="M350.6,360.7c0,0,5.8,62.9-52.2,62.9c-58.1,0-162.6,0-162.6,0l49.9,169.6
	c1.1,3.7-1.7,7.5-5.6,7.5h-12.7c-2.2,0-4.3-1.3-5.2-3.3L78.7,423.2C70,400.7,86,376.4,110.5,375L350.6,360.7z"/>
<linearGradient id="XMLID_219_" gradientUnits="userSpaceOnUse" x1="2.3149" y1="478.0625" x2="276.7188" y2="478.0625" gradientTransform="matrix(-1 0 0 1 372.7228 0)">
	<stop  offset="0" style="stop-color:#84489C"/>
	<stop  offset="1" style="stop-color:#483292"/>
</linearGradient>
<path id="XMLID_191_" class="st12" d="M370.2,355.5c0,0,5.8,64.2-52.2,64.2s-162.6,0-162.6,0l49.9,167.5c1.1,3.7-2.2,6-5.3,8.2
	c-2.8,2-12.9,5.1-12.9,5.1c-2.3,0-4.3-1.3-5.3-3.3L98.4,419.4c-8.7-23,7.3-47.8,31.8-49.3L370.2,355.5z"/>
<path id="XMLID_190_" class="st6" d="M174.4,358.3c2.7-5.1,7.4-9.3,13.2-14c6.4-5.3,30.5-3.1,43.2-6.6c18.5-5.1,57.6-30.1,65.2-34.6
	c0.9-0.5,1.9-0.7,2.9-0.6l18.7,2.6c3.5,0.5,5.1,4.5,2.9,7.3c-3.6,4.6-9,10.5-14.5,13.9c-9.8,6-79.6,26.5-88.3,29.2
	c-8.8,2.7-16.3,2.4-23.6,8.1c-3.1,2.4-7.4,3.6-10.3,4.6c-3.5,1.3-6.1,1.3-7.5,1c-1-0.2-2,0-2.8,0.4
	C167.4,372.6,171.9,363,174.4,358.3z"/>
<linearGradient id="XMLID_245_" gradientUnits="userSpaceOnUse" x1="34.9882" y1="240.3788" x2="79.0951" y2="240.3788" gradientTransform="matrix(-1 0 0 1 372.7228 0)">
	<stop  offset="0" style="stop-color:#84489C"/>
	<stop  offset="1" style="stop-color:#483292"/>
</linearGradient>
<path id="XMLID_189_" class="st13" d="M337.3,220.2c0.1-12,2.3-27.6-4.7-41.5c-7.4-14.7-17.5-14.4-24.4-9.3
	c-6.9,5.1-9.1,10.7-9.2,15.7c-0.3,7,0.4,9.8,1.1,16.8c0.8,9,2.7,17.9,3.6,26.9c1,9.3,1.1,18.7,0.8,28.1c0,1.5-0.1,3-0.2,4.5
	c-0.2,5.6-0.5,11.1-1.6,16.6c-1.1,5.6-2.9,11-5.5,16.1c-0.5,1-5.7,8.5-2.7,10.4c2.9,1.9,15.1,15.2,26.9,8
	C336.3,303.3,337.3,230.3,337.3,220.2z"/>
<path id="XMLID_188_" class="st10" d="M0.4,272.2c0.9-2.2,3-3.6,5.4-3.6h74c1.5,0,3,0.6,4.1,1.7l92.2,92.2c1.7,1.7,2.2,4.2,1.3,6.3
	c-0.9,2.2-3,3.6-5.4,3.6H98c-1.5,0-3-0.6-4.1-1.7L1.7,278.5C0,276.9-0.5,274.4,0.4,272.2z"/>
<path id="XMLID_187_" class="st14" d="M172,372.4h59.9c3.2,0,5.8-2.6,5.8-5.8c0-3.2-2.6-5.8-5.8-5.8h-57.5L84,270.3
	c-2.3-2.3-5.9-2.3-8.2,0c-2.3,2.3-2.3,5.9,0,8.2l92.2,92.2C169,371.8,170.5,372.4,172,372.4z"/>
</svg>
