<?xml version="1.0" encoding="utf-8"?>
<!-- Generator: Adobe Illustrator 19.0.0, SVG Export Plug-In . SVG Version: 6.00 Build 0)  -->
<svg version="1.1" id="Layer_1" xmlns="http://www.w3.org/2000/svg" xmlns:xlink="http://www.w3.org/1999/xlink" x="0px" y="0px"
	 viewBox="0 0 553.8 637" style="enable-background:new 0 0 553.8 637;" xml:space="preserve">
<style type="text/css">
	.st0{fill:url(#XMLID_359_);}
	.st1{fill:url(#XMLID_360_);}
	.st2{fill:#C69F92;}
	.st3{fill:url(#XMLID_361_);}
	.st4{fill:#FEE7DA;}
	.st5{fill:url(#XMLID_362_);}
	.st6{fill:#FCD4C7;}
	.st7{fill:url(#XMLID_363_);}
	.st8{fill:url(#XMLID_364_);}
	.st9{fill:#2D3E99;}
	.st10{fill:#E2EBF3;}
</style>
<linearGradient id="XMLID_359_" gradientUnits="userSpaceOnUse" x1="306.1894" y1="157.1338" x2="363.913" y2="157.1338">
	<stop  offset="0" style="stop-color:#84489C"/>
	<stop  offset="1" style="stop-color:#483292"/>
</linearGradient>
<circle id="XMLID_312_" class="st0" cx="335.1" cy="157.1" r="28.9"/>
<linearGradient id="XMLID_360_" gradientUnits="userSpaceOnUse" x1="287.1827" y1="97.2782" x2="481.7391" y2="97.2782">
	<stop  offset="0" style="stop-color:#84489C"/>
	<stop  offset="1" style="stop-color:#483292"/>
</linearGradient>
<circle id="XMLID_311_" class="st1" cx="384.5" cy="97.3" r="97.3"/>
<path id="XMLID_305_" class="st2" d="M306.4,624.3c0,0,35,9.3,52.9,6.7c17.9-2.7,52.2-1.7,54.5,0c2.3,1.7,12.8,7.7,19.5,5.5
	c6.7-2.2,1.4-9.7-3.5-11.5c-4.9-1.8-50.8-18.8-57.5-27.2c-6.7-8.4-18.5-4.8-30.9-2.6c-12.5,2.2-37.6-10.4-37.6-10.4
	S286,614.7,306.4,624.3z"/>
<linearGradient id="XMLID_361_" gradientUnits="userSpaceOnUse" x1="132.2393" y1="562.0606" x2="445.8948" y2="562.0606">
	<stop  offset="0" style="stop-color:#84489C"/>
	<stop  offset="1" style="stop-color:#483292"/>
</linearGradient>
<path id="XMLID_303_" class="st3" d="M184.1,528.9c77.6-0.4,139.3,56.9,139.3,56.9c-26.2,6.9-13.5,40.6-13.5,40.6
	c-7.5,1.7-105.9-15.9-140.8-28.1c-34.9-12.3-39.6-52.4-35.8-70.5c3.9-18.1,25.4-22.3,41.7-27.1c16.3-4.8,80-3.5,97.3,0.9
	c17.3,4.4,73,7.8,87.6,0.2c0,0,42.7,11.8,78.1,7.1c35.4-4.7-53.7,79.5-148.6,78.1"/>
<path id="XMLID_302_" class="st4" d="M428.4,133.1c1.9,22.3-48,59.6-65.5,64.2c-19.1,5-35.3-13.3-43.1-34.8
	c-7.8-21.3-13.8-39.9-17.6-53.3c-2.7-9.5-17.3-58.4,53.5-79.8C437.5,4.7,426.5,111,428.4,133.1z"/>
<path id="XMLID_283_" class="st4" d="M381.2,158.3c0,0,6.5,34.4-6,42.8c-12.5,8.4-28.1,15.3-36.2,20c-8.4,4.8-23.3,38.3-13.8,64.4
	c9.5,26,89.2,64.9,129.4,45c40.2-20,56.5-88.4,27.3-107.9c-29.2-19.5-50.7-23.1-54-46.1c-3.3-23-7-53.8,2.8-70.2"/>
<path id="XMLID_281_" class="st4" d="M371.9,206.1c-13.1,2.9-34.9,10.3-47.2,26.3s-21.7,50.4-23.8,66.8c-2.1,16.3-15.3,66-18.2,79
	c-2.9,13-2.7,26.6-11.8,33c-11.7,8.2-42.2,37.7-61.6,45.6c-14.9,6-36.9,8.1-41,8c-5.9-0.1-7.6,4.9-5.1,11.6
	c2.4,6.7,4.5,17.8,29.1,13c24.8-4.8,53.5-18.1,80.6-28.6c12.7-4.9,32.2-16.2,36.2-31c4-14.8,19.4-83,30.7-107.9
	C351.2,296.8,371.9,206.1,371.9,206.1z"/>
<linearGradient id="XMLID_362_" gradientUnits="userSpaceOnUse" x1="316.1748" y1="362.0064" x2="480.7842" y2="362.0064">
	<stop  offset="0" style="stop-color:#84489C"/>
	<stop  offset="1" style="stop-color:#483292"/>
</linearGradient>
<path id="XMLID_247_" class="st5" d="M462.7,211.7c0,0-36.3,44.2-26.6,83.5c9.6,39.3,44.6,24.3,44.6,24.3s-10.1,79.6-11,103.3
	s12.3,73.5,11,83.9c-2.7,21.7-52.5,17-98.2,13.6c-45.5-3.5-61.4-4.3-54.8-33.8c6.6-29.5,10.6-27.3,11.7-58.6
	c0.8-22.7,1.5-48-17.2-72.5c-9.1-11.8-8.2-33,4.5-73.5c6.1-19.5,15.8-53,29.4-71.5c0.9-1.6,9-3.8,12.6-5.5c1.8-0.7,6.7-3.8,1.6,4.6
	c-8.3,14-15,25.6-16.7,34.9c-1.8,10.4-1.7,19.3,18.7,22.7c20.4,3.3,39.6-12.6,48.4-28.5c18.2-33.1,17.1-33.4,19.5-36.2
	c2.4-2.8,3.4-1.4,7.1,0.8C451,205.3,464.1,209.9,462.7,211.7z"/>
<path id="XMLID_245_" class="st6" d="M180.7,471c-8.8-7.2-19.8-14.6-37.3-18.7c-17.5-4.1-29.6-13-29-6.8c0.6,6.2,7.5,11.3,14.5,14
	c7,2.7,11.8,8,7.2,11.5c-4.6,3.5-12.6,5.5-16.6,2.2c-4-3.3-18.3-15.4-31-12.9c-12.7,2.5,26,20.9,29.1,26.5
	c3.1,5.6,12.9,15.9,27.6,12.7c14.6-3.3,33.9-8.7,38.4-8.5C188.1,491.1,188.7,477.6,180.7,471z"/>
<linearGradient id="XMLID_363_" gradientUnits="userSpaceOnUse" x1="360.4716" y1="568.4236" x2="553.7706" y2="568.4236">
	<stop  offset="0" style="stop-color:#84489C"/>
	<stop  offset="1" style="stop-color:#483292"/>
</linearGradient>
<path id="XMLID_219_" class="st7" d="M466.4,502.4c22.6-7.8,83.3,0.9,86.5,45.9c3.3,45,1.3,86.9-83.1,88.7
	c-84.4,1.8-100.4-27.1-106-44.5c-2.9-9.1-9.4-21.9,10.7-32.1C394.7,550.2,418.8,518.9,466.4,502.4z"/>
<path id="XMLID_217_" class="st4" d="M372.6,574.5c-6.4,0.1,2.3-6.8-1-12.2c-3.1-5.1-6.5-11.9-34.6-2.1c-28.1,9.7-32.6,5.2-39.8,1.8
	c-7.2-3.4-35.2,1-39.6,5.3c-4.3,4.3,15.3,7.7,18.7,11.6c3.4,3.9,63.5,26.6,93.9,30.1C400.7,612.5,372.6,574.5,372.6,574.5z"/>
<linearGradient id="XMLID_364_" gradientUnits="userSpaceOnUse" x1="295.4181" y1="95.5829" x2="480.3759" y2="95.5829">
	<stop  offset="0" style="stop-color:#84489C"/>
	<stop  offset="1" style="stop-color:#483292"/>
</linearGradient>
<path id="XMLID_216_" class="st8" d="M468.2,156.7c5-2,9.3-5.6,12.2-10.6l-26-14.6c2-6.1,2.2-12.8-0.3-19.2
	c-2.5-6.6-7.2-11.6-12.9-14.9c3.6-7.5,4.4-16.4,1.2-24.8c-3.9-10.3-12.6-17.3-22.6-19.6c0.3-6.2-0.7-12.6-3-18.9
	c-9.3-24.6-36.7-37-61.3-27.8c-1.7,0.6-3.3,1.4-4.9,2.2c-8.1-2-16.8-1.7-25.2,1.4c-21.2,8-32.2,31.1-25.4,52.4
	c-6.5,11.1-6.4,25.4,1.4,36.7c10.8,15.4,32.1,19.2,47.5,8.4l-11-15.7c3.1,0.2,6.2,0,9.3-0.5c10.9,6.7,24.3,9,37.3,5.5
	c3.3,7.1,8.8,12.5,15.6,15.5c-2.3,6.3-2.6,13.4-0.1,20.2c2.7,7.3,8.1,12.7,14.6,15.8c-1.3,8.4,0.5,17.2,5.7,24.7
	c10.8,15.4,32.1,19.2,47.5,8.4l-4.3-6.2c5.7-1.3,11.2-4.3,15.4-9L468.2,156.7z"/>
<path id="XMLID_215_" class="st6" d="M345,502.2c7.6-4.7,9.2-14.3,2-19.8c-3.3-2.5-20.1-5.9-32.5-9.5c-12.4-3.6-20.4,6.4-22.9,11.9
	c-2.5,5.5-32.9,18.1-23.8,25.6C281.8,522.1,307.6,525,345,502.2z"/>
<path id="XMLID_214_" class="st4" d="M489.7,230.1c-13.1,2.9-17.8,7.1-30,23c-12.2,15.9-21.7,50.4-23.8,66.8
	c-2.1,16.3-11.9,52.7-14.8,65.7c-2.9,13-2.7,26.6-11.8,33c-11.7,8.2-45.6,51-65.1,58.8c-14.9,6-36.9,8.1-41,8
	c-5.9-0.1-7.6,4.9-5.1,11.6c2.4,6.7,4.5,17.8,29.1,13c24.8-4.8,61.2-22.9,85.2-39.4c14.8-10.2,31.1-18.6,35.1-33.4
	s16.1-69.7,27.2-94.7C512.9,257.4,489.7,230.1,489.7,230.1z"/>
<path id="XMLID_213_" class="st9" d="M0.6,390.4c1.2-2.8,4-4.7,7-4.7h168.5c2,0,4,0.8,5.4,2.2l120.7,120.7c2.2,2.2,2.8,5.4,1.6,8.3
	c-1.2,2.8-4,4.7-7,4.7H128.3c-2,0-4-0.8-5.4-2.2L2.2,398.7C0.1,396.5-0.6,393.2,0.6,390.4z"/>
<path id="XMLID_212_" class="st10" d="M307,521.6h148.6c4.2,0,7.6-3.4,7.6-7.6s-3.4-7.6-7.6-7.6H310.1L191.6,387.9
	c-3-3-7.8-3-10.8,0c-3,3-3,7.8,0,10.8l120.7,120.7C303,520.8,304.9,521.6,307,521.6z"/>
</svg>
