<?xml version="1.0" encoding="utf-8"?>
<!-- Generator: Adobe Illustrator 19.0.0, SVG Export Plug-In . SVG Version: 6.00 Build 0)  -->
<svg version="1.1" id="Layer_1" xmlns="http://www.w3.org/2000/svg" xmlns:xlink="http://www.w3.org/1999/xlink" x="0px" y="0px"
	 viewBox="0 0 696.7 653.2" style="enable-background:new 0 0 696.7 653.2;" xml:space="preserve">
<style type="text/css">
	.st0{fill:#172B54;}
	.st1{fill:url(#XMLID_186_);}
	.st2{fill:url(#XMLID_187_);}
	.st3{fill:url(#XMLID_188_);}
	.st4{fill:url(#XMLID_189_);}
	.st5{fill:url(#XMLID_190_);}
	.st6{fill:url(#XMLID_191_);}
	.st7{fill:url(#XMLID_192_);}
	.st8{fill:url(#XMLID_193_);}
	.st9{fill:url(#XMLID_194_);}
	.st10{fill:url(#XMLID_195_);}
	.st11{fill:url(#XMLID_196_);}
	.st12{fill:url(#XMLID_197_);}
	.st13{fill:url(#XMLID_198_);}
	.st14{fill:url(#XMLID_199_);}
	.st15{fill:url(#XMLID_200_);}
	.st16{fill:url(#XMLID_201_);}
	.st17{fill:url(#XMLID_202_);}
	.st18{fill:url(#XMLID_204_);}
	.st19{fill:url(#XMLID_205_);}
	.st20{fill:url(#XMLID_206_);}
	.st21{fill:url(#XMLID_207_);}
	.st22{fill:url(#XMLID_208_);}
	.st23{fill:url(#XMLID_209_);}
	.st24{fill:#FAFBFB;}
	.st25{fill:url(#XMLID_210_);}
	.st26{fill:url(#XMLID_211_);}
	.st27{fill:url(#XMLID_212_);}
	.st28{fill:url(#XMLID_213_);}
	.st29{fill:#EEEBD4;}
	.st30{fill:#D6D5CA;}
	.st31{fill:#CCCAC3;}
	.st32{fill:#9E9C97;}
	.st33{fill:url(#XMLID_214_);}
	.st34{fill:#FEE7DA;}
</style>
<g id="XMLID_455_">
	<g id="XMLID_459_">
		<polygon id="XMLID_427_" class="st0" points="556.8,552.4 577.9,623.5 569.8,623.5 545.9,552.4 		"/>
		<polygon id="XMLID_426_" class="st0" points="529,552.4 545.9,552.4 569.8,623.5 559.9,623.5 		"/>
	</g>
	<g id="XMLID_456_">
		<polygon id="XMLID_425_" class="st0" points="666.5,542.8 687.6,613.9 679.5,613.9 655.6,542.8 		"/>
		<polygon id="XMLID_424_" class="st0" points="638.7,542.8 655.6,542.8 679.5,613.9 669.7,613.9 		"/>
	</g>
</g>
<g id="XMLID_448_">
	<g id="XMLID_452_">
		<polygon id="XMLID_423_" class="st0" points="141.3,532.5 120.2,603.6 128.3,603.6 152.2,532.5 		"/>
		<polygon id="XMLID_422_" class="st0" points="169.1,532.5 152.2,532.5 128.3,603.6 138.1,603.6 		"/>
	</g>
	<g id="XMLID_449_">
		<polygon id="XMLID_421_" class="st0" points="31.5,542.8 10.4,613.9 18.5,613.9 42.4,542.8 		"/>
		<polygon id="XMLID_420_" class="st0" points="59.3,542.8 42.4,542.8 18.5,613.9 28.4,613.9 		"/>
	</g>
</g>
<linearGradient id="XMLID_186_" gradientUnits="userSpaceOnUse" x1="299.7668" y1="342.3168" x2="299.7668" y2="475.2755" gradientTransform="matrix(-1 0 0 1 696.6779 0)">
	<stop  offset="0" style="stop-color:#84489C"/>
	<stop  offset="1" style="stop-color:#483292"/>
</linearGradient>
<path id="XMLID_419_" class="st1" d="M215.9,200.4h55.8h379.7l-59.5,265.8H197.5h-55V273.9C142.5,233.3,175.3,200.4,215.9,200.4z"/>
<linearGradient id="XMLID_187_" gradientUnits="userSpaceOnUse" x1="75.0398" y1="258.504" x2="75.0398" y2="467.724" gradientTransform="matrix(-1 0 0 1 696.6779 0)">
	<stop  offset="0" style="stop-color:#84489C"/>
	<stop  offset="1" style="stop-color:#483292"/>
</linearGradient>
<path id="XMLID_418_" class="st2" d="M651.4,200.4v265.8h-59.5V259.9C591.9,227.1,618.5,200.4,651.4,200.4L651.4,200.4z"/>
<linearGradient id="XMLID_188_" gradientUnits="userSpaceOnUse" x1="602.7939" y1="399.3373" x2="602.7939" y2="475.7397" gradientTransform="matrix(-1 0 0 1 696.6779 0)">
	<stop  offset="0" style="stop-color:#84489C"/>
	<stop  offset="1" style="stop-color:#483292"/>
</linearGradient>
<path id="XMLID_417_" class="st3" d="M0,550l0-192.4h133.1c30.2,0,54.6,24.5,54.6,54.6v155.1H69H17.4L0,550z"/>
<linearGradient id="XMLID_189_" gradientUnits="userSpaceOnUse" x1="627.7101" y1="462.4762" x2="696.6707" y2="462.4762" gradientTransform="matrix(-1 0 0 1 696.6779 0)">
	<stop  offset="0" style="stop-color:#84489C"/>
	<stop  offset="1" style="stop-color:#483292"/>
</linearGradient>
<path id="XMLID_416_" class="st4" d="M0,357.6L0,357.6L0,550c0,9.6,7.8,17.4,17.4,17.4H69V426.5C69,388.5,38.1,357.6,0,357.6z"/>
<linearGradient id="XMLID_190_" gradientUnits="userSpaceOnUse" x1="412.8889" y1="480.5022" x2="412.8889" y2="467.6721" gradientTransform="matrix(-1 0 0 1 696.6779 0)">
	<stop  offset="0" style="stop-color:#84489C"/>
	<stop  offset="1" style="stop-color:#483292"/>
</linearGradient>
<rect id="XMLID_415_" x="59.1" y="466.2" class="st5" width="449.5" height="86"/>
<linearGradient id="XMLID_191_" gradientUnits="userSpaceOnUse" x1="188.1616" y1="524.3718" x2="637.6161" y2="524.3718" gradientTransform="matrix(-1 0 0 1 696.6779 0)">
	<stop  offset="0" style="stop-color:#84489C"/>
	<stop  offset="1" style="stop-color:#483292"/>
</linearGradient>
<rect id="XMLID_414_" x="59.1" y="481.4" class="st6" width="449.5" height="86"/>
<linearGradient id="XMLID_192_" gradientUnits="userSpaceOnUse" x1="122.0365" y1="462.4762" x2="190.9966" y2="462.4762" gradientTransform="matrix(-1 0 0 1 696.6779 0)">
	<stop  offset="0" style="stop-color:#84489C"/>
	<stop  offset="1" style="stop-color:#483292"/>
</linearGradient>
<path id="XMLID_413_" class="st7" d="M574.6,357.6L574.6,357.6c-38.1,0-69,30.9-69,69v140.8h69V357.6z"/>
<linearGradient id="XMLID_193_" gradientUnits="userSpaceOnUse" x1="61.0182" y1="366.7178" x2="61.0182" y2="664.8686" gradientTransform="matrix(-1 0 0 1 696.6779 0)">
	<stop  offset="0" style="stop-color:#84489C"/>
	<stop  offset="1" style="stop-color:#483292"/>
</linearGradient>
<path id="XMLID_412_" class="st8" d="M684.8,567.4H574.6V357.6h112c5.6,0,10.1,4.5,10.1,10.1v187.9
	C696.7,562.1,691.4,567.4,684.8,567.4z"/>
<g id="XMLID_116_">
	<g id="XMLID_431_">
		
			<linearGradient id="XMLID_194_" gradientUnits="userSpaceOnUse" x1="269.4295" y1="252.1009" x2="330.3404" y2="252.1009" gradientTransform="matrix(-1 0 0 1 696.6779 0)">
			<stop  offset="0" style="stop-color:#84489C"/>
			<stop  offset="1" style="stop-color:#483292"/>
		</linearGradient>
		<path id="XMLID_411_" class="st9" d="M388.1,318c-5.4-9.3-12.9-17.4-21.7-23.6c4.3-4,15.3-14.2,15.8-15.8
			c0.6-1.7,0.6-60.5,0.3-73.1c-0.2-7.1,2.2-15,8.6-18.1c4.8-2.4,10.8-1.2,15.5,1.6c9.6,5.7,14.1,17,17.7,27.6
			c9.5,28.5-5.9,77.7-6.5,79.5C416.9,298.4,397,313.6,388.1,318z"/>
		
			<linearGradient id="XMLID_195_" gradientUnits="userSpaceOnUse" x1="308.6237" y1="316.1389" x2="372.588" y2="316.1389" gradientTransform="matrix(-1 0 0 1 696.6779 0)">
			<stop  offset="0" style="stop-color:#84489C"/>
			<stop  offset="1" style="stop-color:#483292"/>
		</linearGradient>
		<path id="XMLID_408_" class="st10" d="M366.3,294.5l-42.2,35.1l4.4,8.2l59.5-19.8C388.1,318,374.9,294.2,366.3,294.5z"/>
		<g id="XMLID_432_">
			
				<linearGradient id="XMLID_196_" gradientUnits="userSpaceOnUse" x1="366.1498" y1="346.3998" x2="385.9502" y2="346.3998" gradientTransform="matrix(-1 0 0 1 696.6779 0)">
				<stop  offset="0" style="stop-color:#84489C"/>
				<stop  offset="1" style="stop-color:#483292"/>
			</linearGradient>
			<polygon id="XMLID_407_" class="st11" points="324.1,329.5 310.7,359.9 313.3,363.3 330.5,348.9 328.5,337.8 			"/>
			
				<linearGradient id="XMLID_197_" gradientUnits="userSpaceOnUse" x1="364.7315" y1="362.6857" x2="375.6478" y2="362.6857" gradientTransform="matrix(-1 0 0 1 696.6779 0)">
				<stop  offset="0" style="stop-color:#84489C"/>
				<stop  offset="1" style="stop-color:#483292"/>
			</linearGradient>
			<polygon id="XMLID_405_" class="st12" points="321,356.7 324.1,365.8 331.6,370.9 331.9,369.2 326.7,363.7 323.8,354.5 			"/>
			
				<linearGradient id="XMLID_198_" gradientUnits="userSpaceOnUse" x1="370.937" y1="365.4189" x2="378.8601" y2="365.4189" gradientTransform="matrix(-1 0 0 1 696.6779 0)">
				<stop  offset="0" style="stop-color:#84489C"/>
				<stop  offset="1" style="stop-color:#483292"/>
			</linearGradient>
			<polygon id="XMLID_96_" class="st13" points="317.8,358.1 318.8,367.7 325,374.3 325.7,372.7 321.9,366.2 321,356.5 			"/>
			
				<linearGradient id="XMLID_199_" gradientUnits="userSpaceOnUse" x1="377.2238" y1="367.6278" x2="383.073" y2="367.6278" gradientTransform="matrix(-1 0 0 1 696.6779 0)">
				<stop  offset="0" style="stop-color:#84489C"/>
				<stop  offset="1" style="stop-color:#483292"/>
			</linearGradient>
			<polygon id="XMLID_95_" class="st14" points="314.5,359.5 313.6,369 318.5,376.7 319.5,375.3 316.9,368.2 317.9,358.5 			"/>
			
				<linearGradient id="XMLID_200_" gradientUnits="userSpaceOnUse" x1="380.9598" y1="368.0768" x2="386.8091" y2="368.0768" gradientTransform="matrix(-1 0 0 1 696.6779 0)">
				<stop  offset="0" style="stop-color:#84489C"/>
				<stop  offset="1" style="stop-color:#483292"/>
			</linearGradient>
			<polygon id="XMLID_94_" class="st15" points="310.7,359.9 309.9,369.5 314.7,377.2 315.7,375.8 313.2,368.6 314.1,359 			"/>
		</g>
	</g>
	
		<linearGradient id="XMLID_201_" gradientUnits="userSpaceOnUse" x1="247.1495" y1="161.3307" x2="282.8323" y2="573.6628" gradientTransform="matrix(-1 0 0 1 696.6779 0)">
		<stop  offset="0" style="stop-color:#84489C"/>
		<stop  offset="1" style="stop-color:#483292"/>
	</linearGradient>
	<path id="XMLID_93_" class="st16" d="M445.2,141.8c3.3,0.1,6.5,1.3,9.6,2.6c17.2,7,34.4,14,51.7,20.9c2.8,1.1,5.8,2.4,7.5,4.9
		c1.5,2.3,1.7,5.2,1.8,7.9c3.1,72.8-15.8,165.7-41.8,233.8c-34.8,0.5-69.8-14.2-105.1-20.7c17.5-47.3,26.7-125.8,7.9-172.5
		c-3.4-8.4-2-23.2,1.4-31.5c1.5-3.7,35.3-33.3,56.7-42.6C438.1,143.1,441.6,141.8,445.2,141.8z"/>
	<g id="XMLID_117_">
		
			<linearGradient id="XMLID_202_" gradientUnits="userSpaceOnUse" x1="195.4951" y1="174.8501" x2="195.4951" y2="315.9007" gradientTransform="matrix(-1 0 0 1 696.6779 0)">
			<stop  offset="0" style="stop-color:#84489C"/>
			<stop  offset="1" style="stop-color:#483292"/>
		</linearGradient>
		<path id="XMLID_92_" class="st17" d="M481.4,343.9c-2.6-12.7-8.1-24.9-15.9-35.3c6.4-2.9,23-10.5,24.2-12.1
			c1.4-1.8-0.9-95.3,3.6-109.8c2.5-8.2,8.3-16.4,16.7-17.5c6.5-0.9,12.9,2.7,17.1,7.7c8.8,10.2,9.7,24.9,9.7,38.4
			c0,36.4-11.8,113-13.2,114.8C522,332.4,493.4,342.3,481.4,343.9z"/>
		
			<linearGradient id="XMLID_204_" gradientUnits="userSpaceOnUse" x1="215.3156" y1="326.267" x2="293.0628" y2="326.267" gradientTransform="matrix(-1 0 0 1 696.6779 0)">
			<stop  offset="0" style="stop-color:#84489C"/>
			<stop  offset="1" style="stop-color:#483292"/>
		</linearGradient>
		<path id="XMLID_91_" class="st18" d="M465.5,308.6l-61.9,24.2l1.9,11.1h75.8C481.4,343.9,475.4,311.6,465.5,308.6z"/>
		<g id="XMLID_118_">
			
				<linearGradient id="XMLID_205_" gradientUnits="userSpaceOnUse" x1="291.1545" y1="350.0264" x2="320.0059" y2="350.0264" gradientTransform="matrix(-1 0 0 1 696.6779 0)">
				<stop  offset="0" style="stop-color:#84489C"/>
				<stop  offset="1" style="stop-color:#483292"/>
			</linearGradient>
			<polygon id="XMLID_90_" class="st19" points="403.6,332.7 376.7,362.5 378.3,367.4 403.6,357.4 405.5,343.9 			"/>
			
				<linearGradient id="XMLID_206_" gradientUnits="userSpaceOnUse" x1="299.2388" y1="372.1577" x2="306.9592" y2="372.1577" gradientTransform="matrix(-1 0 0 1 696.6779 0)">
				<stop  offset="0" style="stop-color:#84489C"/>
				<stop  offset="1" style="stop-color:#483292"/>
			</linearGradient>
			<polygon id="XMLID_89_" class="st20" points="389.7,362.8 389.7,374.3 396.4,383.1 397.4,381.3 393.6,372.9 393.7,361.2 			"/>
			
				<linearGradient id="XMLID_207_" gradientUnits="userSpaceOnUse" x1="306.9592" y1="373.5097" x2="313.7127" y2="373.5097" gradientTransform="matrix(-1 0 0 1 696.6779 0)">
				<stop  offset="0" style="stop-color:#84489C"/>
				<stop  offset="1" style="stop-color:#483292"/>
			</linearGradient>
			<polygon id="XMLID_88_" class="st21" points="385.5,363.2 383,374.5 387.6,384.5 389,382.9 387,373.9 389.7,362.5 			"/>
			
				<linearGradient id="XMLID_208_" gradientUnits="userSpaceOnUse" x1="311.2787" y1="374.1065" x2="320.1864" y2="374.1065" gradientTransform="matrix(-1 0 0 1 696.6779 0)">
				<stop  offset="0" style="stop-color:#84489C"/>
				<stop  offset="1" style="stop-color:#483292"/>
			</linearGradient>
			<polygon id="XMLID_87_" class="st22" points="381.1,363.5 376.5,374.1 379.1,384.8 380.8,383.5 380.6,374.3 385.4,363.6 			"/>
			
				<linearGradient id="XMLID_209_" gradientUnits="userSpaceOnUse" x1="315.7328" y1="373.1953" x2="324.6408" y2="373.1953" gradientTransform="matrix(-1 0 0 1 696.6779 0)">
				<stop  offset="0" style="stop-color:#84489C"/>
				<stop  offset="1" style="stop-color:#483292"/>
			</linearGradient>
			<polygon id="XMLID_86_" class="st23" points="376.7,362.5 372,373.2 374.7,383.8 376.3,382.6 376.1,373.4 380.9,362.7 			"/>
		</g>
	</g>
</g>
<polygon id="XMLID_85_" class="st24" points="321.1,356.3 322.6,368.8 320.3,368.8 317.1,360.7 "/>
<linearGradient id="XMLID_210_" gradientUnits="userSpaceOnUse" x1="281.458" y1="478.9904" x2="473.0208" y2="478.9904" gradientTransform="matrix(-1 0 0 1 696.6779 0)">
	<stop  offset="0" style="stop-color:#FDE93B"/>
	<stop  offset="1" style="stop-color:#FCC012"/>
</linearGradient>
<polygon id="XMLID_84_" class="st25" points="223.7,437.8 257.5,422.1 415.2,469 289.3,474.5 289.3,494.7 274.1,535.9 227.2,466.2 
	"/>
<linearGradient id="XMLID_211_" gradientUnits="userSpaceOnUse" x1="412.7445" y1="546.5004" x2="469.4704" y2="546.5004" gradientTransform="matrix(-1 0 0 1 696.6779 0)">
	<stop  offset="0" style="stop-color:#FDE93B"/>
	<stop  offset="1" style="stop-color:#FCC012"/>
</linearGradient>
<polygon id="XMLID_82_" class="st26" points="245.2,626.3 227.2,466.2 283.9,509.2 265.7,626.8 "/>
<linearGradient id="XMLID_212_" gradientUnits="userSpaceOnUse" x1="451.0883" y1="447.643" x2="592.9871" y2="447.643" gradientTransform="matrix(-1 0 0 1 696.6779 0)">
	<stop  offset="0" style="stop-color:#FDE93B"/>
	<stop  offset="1" style="stop-color:#FCC012"/>
</linearGradient>
<path id="XMLID_81_" class="st27" d="M103.7,496c0.3-0.8,99.2-86.1,99.2-86.1l32.7-16.7l10,48.7l-122.3,60.2
	C123.2,502.1,103.7,496,103.7,496z"/>
<linearGradient id="XMLID_213_" gradientUnits="userSpaceOnUse" x1="223.1924" y1="437.7977" x2="480.9453" y2="437.7977" gradientTransform="matrix(-1 0 0 1 696.6779 0)">
	<stop  offset="0" style="stop-color:#FDE93B"/>
	<stop  offset="1" style="stop-color:#FCC012"/>
</linearGradient>
<path id="XMLID_79_" class="st28" d="M473.5,412l-12,34.6c-9,26.1-37.6,41.6-66,35.8l-158.4-39.9c-12.5-2.5-21.4-12.9-21.4-24.9v0
	c0-14.1,12.1-25.5,27.1-25.5l143.9,0.7L473.5,412z"/>
<g id="XMLID_102_">
	<path id="XMLID_78_" class="st29" d="M332.7,385.6h-139l-20.7-85.2c-1.9-7.8,4-15.4,12.1-15.4h113.4c5.7,0,10.7,3.9,12.1,9.5
		L332.7,385.6z"/>
	<path id="XMLID_77_" class="st30" d="M326.8,385.6l-22.2-91.1c-1.4-5.6-6.3-9.5-12.1-9.5H179.1c-4.2,0-7.8,2-10,5.1l95.5,95.5
		H326.8z"/>
	<path id="XMLID_76_" class="st31" d="M169.1,290.2c-2.1,2.8-3,6.5-2.1,10.3l20.7,85.2h76.8L169.1,290.2z"/>
	<path id="XMLID_75_" class="st32" d="M389.9,385.6H270l7,7h119.9C396.9,388.8,393.8,385.6,389.9,385.6z"/>
	<path id="XMLID_74_" class="st32" d="M187.8,385.6c0,3.9,3.1,7,7,7H277l-7-7H187.8z"/>
	<path id="XMLID_73_" class="st29" d="M396.9,392.6h-63.1c-3.9,0-7-3.1-7-7h63.1C393.8,385.6,396.9,388.8,396.9,392.6z"/>
</g>
<linearGradient id="XMLID_214_" gradientUnits="userSpaceOnUse" x1="212.0416" y1="67.3696" x2="370.678" y2="67.3696" gradientTransform="matrix(-1 0 0 1 696.6779 0)">
	<stop  offset="0" style="stop-color:#84489C"/>
	<stop  offset="1" style="stop-color:#483292"/>
</linearGradient>
<path id="XMLID_72_" class="st33" d="M375.4,105.2c-4.7,3.4-11.6,3.5-16.4,0.2c-4.8-3.3-7.3-9.6-6-15.3c-9.2,3.2-19.6-8-15.7-17
	c-5.9-0.6-11-6-11.2-11.9c-0.3-5.9,4.2-11.7,10.1-12.9c-2.8-7.3-0.7-16.2,5-21.6c5.7-5.3,14.7-6.8,21.9-3.6
	c0.2-9.4,6.5-18.3,15.2-21.7c8.7-3.4,19.4-1,25.8,5.8c14.5-9.5,37-2.3,43.3,13.8c11.8-0.7,22.6,11.5,20.5,23.2
	c7-0.1,13.7,4.6,16,11.2c2.3,6.6-0.1,14.5-5.7,18.7c7.5,8.9,1.5,25.1-10,27c3.6,2.8,4.5,8.4,2.1,12.3c-2.4,3.9-7.8,5.5-11.9,3.5
	c0.7,6.2-2.5,12.6-7.9,15.7c-5.4,3.1-12.6,2.6-17.6-1.2L375.4,105.2z"/>
<g id="XMLID_98_">
	<path id="XMLID_71_" class="st34" d="M373.2,69.9c-4.5,2.4-6,8.3-5.4,13.3c0.6,5.1,2.9,9.8,3.8,14.8c1,5,0.3,10.9-3.6,14.1
		c-1.9,1.6-4.8,2.8-4.8,5.3c0,3.3,4.6,3.8,7.5,5.4c4.4,2.5,5.1,8.4,5.4,13.5c0.3,5.1,1.2,11.1,5.8,13.2c5.9,2.7,12-3.1,18.3-4.8
		c5.8-1.5,12.1,0.9,16.7,4.8c4.6,3.9,16.6,26.3,19.8,31.4c10.6-1.2,19.6-16.3,19.9-32L426,112c3.7,0.4,7.2-1.9,9.1-5.1
		c1.8-3.2,1.4-7.6-1.1-10.3c-2.5-2.7-13-6-13,6.2c0,0-7.2-6.8-10.2-16.6C404.1,64.7,373.2,69.9,373.2,69.9z"/>
</g>
<polygon id="XMLID_14_" class="st0" points="265.7,626.8 245.2,626.3 219.2,639 186.7,641.7 181.8,648.8 272.6,653.2 "/>
<polygon id="XMLID_11_" class="st0" points="123.3,502.1 103.7,496 75.2,501 43.2,494.7 36.5,500.2 122.7,529.3 "/>
</svg>
